<svg id="8517d050-1585-4a65-a6e8-a0782965e131" data-name="Слой 1" xmlns="http://www.w3.org/2000/svg" width="24" height="24" viewBox="0 0 24 24"><title>facebook</title><path d="M21.19,0H2.81A2.81,2.81,0,0,0,0,2.81V21.19A2.81,2.81,0,0,0,2.81,24H21.19A2.81,2.81,0,0,0,24,21.19V2.81A2.81,2.81,0,0,0,21.19,0Zm.93,21.19a.94.94,0,0,1-.93.94H15.66V15.28h3l.35-2.9H15.66V9.23a1.37,1.37,0,0,1,1.4-1.4h2.11V5.11a20.14,20.14,0,0,0-2.11-.19,4.3,4.3,0,0,0-3,1.27,4.23,4.23,0,0,0-1.31,3.05v3.14H9.7v2.9h3.05v6.85H2.81a.94.94,0,0,1-.93-.94V2.81a.94.94,0,0,1,.93-.94H21.19a.94.94,0,0,1,.93.94Z" transform="translate(0)" fill="#666" fill-rule="evenodd"/></svg>