<svg id="4f2bc50e-13ac-4fc8-9296-d457c98d9d68" data-name="Ğ¡Ğ»Ğ¾Ğ¹ 1" xmlns="http://www.w3.org/2000/svg" xmlns:xlink="http://www.w3.org/1999/xlink" width="96" height="110" viewBox="0 0 96 110"><defs><linearGradient id="e811690f-d08c-408f-a17e-80eded8e8379" y1="55" x2="96" y2="55" gradientUnits="userSpaceOnUse"><stop offset="0" stop-color="#51b9dc"/><stop offset="1" stop-color="#4f6ff3"/></linearGradient></defs><title>feature-6</title><polygon points="48 0 0 27.5 0 82.5 48 110 96 82.5 96 27.5 48 0" fill-rule="evenodd" fill="url(#e811690f-d08c-408f-a17e-80eded8e8379)"/><path d="M39.5,53.5a6,6,0,1,0-6-6A6,6,0,0,0,39.5,53.5Zm0-8a2,2,0,1,1-2,2A2,2,0,0,1,39.5,45.5Zm16,12a6,6,0,1,0,6,6A6,6,0,0,0,55.5,57.5Zm0,8a2,2,0,1,1,2-2A2,2,0,0,1,55.5,65.5Zm2-22.83L34.67,65.5l2.83,2.83L60.33,45.5ZM48,28A27,27,0,1,0,75,55,27,27,0,0,0,48,28Zm0,50A23,23,0,1,1,71,55,23,23,0,0,1,48,78Z" fill="#fff" fill-rule="evenodd"/></svg>