<svg id="b6d61d01-3975-4d31-9183-fe27093b4cc3" data-name="Ğ¡Ğ»Ğ¾Ğ¹ 1" xmlns="http://www.w3.org/2000/svg" xmlns:xlink="http://www.w3.org/1999/xlink" width="96" height="110" viewBox="0 0 96 110"><defs><linearGradient id="62238f59-4c92-4313-80fe-889517757b4c" y1="55" x2="96" y2="55" gradientUnits="userSpaceOnUse"><stop offset="0" stop-color="#51b9dc"/><stop offset="1" stop-color="#4f6ff3"/></linearGradient></defs><title>feature-2</title><polygon points="48 0 0 27.5 0 82.5 48 110 96 82.5 96 27.5 48 0" fill-rule="evenodd" fill="url(#62238f59-4c92-4313-80fe-889517757b4c)"/><path d="M32,40H18v4H32ZM30,50H16v4H30ZM28,60H14v4H28ZM72,40H67V30H23v6h4V34H63V70H44.74a8,8,0,0,0-15.48,0H27V68H23v6h6.26a8,8,0,0,0,15.48,0H63.26a8,8,0,0,0,15.48,0H83V54.32ZM37,76a4,4,0,1,1,4-4A4,4,0,0,1,37,76Zm34,0a4,4,0,1,1,4-4A4,4,0,0,1,71,76Zm8-6h-.26A8,8,0,0,0,67,65.08V44h3l9,11.68Z" fill="#fff" fill-rule="evenodd"/></svg>