<svg id="0d9b2b7a-1a1f-4ca8-9058-9d9b5cfe9d2a" data-name="Ğ¡Ğ»Ğ¾Ğ¹ 1" xmlns="http://www.w3.org/2000/svg" xmlns:xlink="http://www.w3.org/1999/xlink" width="96" height="110" viewBox="0 0 96 110"><defs><linearGradient id="bb68c60b-bf33-45e1-9a41-3d2400e8f7c1" y1="55" x2="96" y2="55" gradientUnits="userSpaceOnUse"><stop offset="0" stop-color="#51b9dc"/><stop offset="1" stop-color="#4f6ff3"/></linearGradient></defs><title>feature-1</title><polygon points="48 0 0 27.5 0 82.5 48 110 96 82.5 96 27.5 48 0" fill-rule="evenodd" fill="url(#bb68c60b-bf33-45e1-9a41-3d2400e8f7c1)"/><path d="M62,30V25H58v5H38V25H34v5H22V82H74V30Zm8,48H26V34h8v5h4V34H58v5h4V34h8ZM52,51V61H48v4h4v2H48v4h4v3h4V71h4V67H56V65h3a7,7,0,0,0,0-14Zm10,7a3,3,0,0,1-3,3H56V55h3A3,3,0,0,1,62,58Z" fill="#fff" fill-rule="evenodd"/></svg>