<svg id="0de039e0-0280-48d3-9e5e-1a1936958d0e" data-name="Ğ¡Ğ»Ğ¾Ğ¹ 1" xmlns="http://www.w3.org/2000/svg" xmlns:xlink="http://www.w3.org/1999/xlink" width="96" height="110" viewBox="0 0 96 110"><defs><linearGradient id="4ae75b35-934e-44a1-8555-55275827b791" y1="55" x2="96" y2="55" gradientUnits="userSpaceOnUse"><stop offset="0" stop-color="#51b9dc"/><stop offset="1" stop-color="#4f6ff3"/></linearGradient></defs><title>feature-5</title><polygon points="48 0 0 27.5 0 82.5 48 110 96 82.5 96 27.5 48 0" fill-rule="evenodd" fill="url(#4ae75b35-934e-44a1-8555-55275827b791)"/><path d="M55.58,43.56l7.57-7.44L52.69,34.58,48,25l-4.69,9.58L32.85,36.12l7.57,7.44L38.63,54.09l9.37-5,9.37,5Zm-3.47,3.23L48,44.61l-4.11,2.18.79-4.61L41.35,38.9l4.6-.68L48,34l2,4.19,4.6.68-3.33,3.28ZM35.84,59.49l-4.69-9.58-4.69,9.58L16,61l7.57,7.44L21.78,79l9.37-5,9.37,5L38.73,68.47,46.3,61ZM35.26,71.7l-4.11-2.18L27,71.7l.79-4.61L24.5,63.81l4.6-.68,2-4.19,2.05,4.19,4.6.68-3.33,3.28ZM80,61,69.54,59.49l-4.69-9.58-4.69,9.58L49.7,61l7.57,7.44L55.48,79l9.37-5,9.37,5L72.43,68.47ZM69,71.7l-4.11-2.18L60.74,71.7l.79-4.61-3.34-3.28,4.61-.68,2-4.19,2.05,4.19,4.6.68-3.33,3.28Z" fill="#fff" fill-rule="evenodd"/></svg>