<svg id="ac9c5617-fe4f-4266-878e-b66b6059c380" data-name="Ğ¡Ğ»Ğ¾Ğ¹ 1" xmlns="http://www.w3.org/2000/svg" xmlns:xlink="http://www.w3.org/1999/xlink" width="96" height="110" viewBox="0 0 96 110"><defs><linearGradient id="62703147-bf39-47b2-a11b-e3dc887019bd" y1="55" x2="96" y2="55" gradientUnits="userSpaceOnUse"><stop offset="0" stop-color="#51b9dc"/><stop offset="1" stop-color="#4f6ff3"/></linearGradient></defs><title>feature-4</title><polygon points="48 0 0 27.5 0 82.5 48 110 96 82.5 96 27.5 48 0" fill-rule="evenodd" fill="url(#62703147-bf39-47b2-a11b-e3dc887019bd)"/><path d="M23,29V55C23,69.3,33.1,81.59,47.55,84.9L48,85l.45-.1C62.9,81.59,73,69.3,73,55V29ZM69,55c0,12.26-8.61,22.85-21,25.89C35.61,77.86,27,67.27,27,55V33H69ZM60,62.1V47.85L48,40.66,36,47.85V62.1l12,7.2Zm-4-2.26-6,3.6V56.11l6-3.6ZM48,45.32,54.11,49,48,52.65,41.89,49ZM46,63.44l-6-3.6V52.51l6,3.6Z" fill="#fff" fill-rule="evenodd"/></svg>