<svg id="b9cadd26-cc39-422f-ab4e-ce8b9819113a" data-name="Слой 1" xmlns="http://www.w3.org/2000/svg" xmlns:xlink="http://www.w3.org/1999/xlink" width="208" height="137" viewBox="0 0 208 137"><defs><linearGradient id="ad505480-8f59-4b3a-87a1-bdb51d090f4e" x1="104" y1="137" x2="104" gradientUnits="userSpaceOnUse"><stop offset="0" stop-color="#0044b5"/><stop offset="1" stop-color="#2461c5"/></linearGradient></defs><title>icis-top-100</title><polygon points="0 0 0 137 208 117 208 0 0 0" fill="#0044b5" fill-rule="evenodd"/><polygon points="0 0 0 137 208 117 208 0 0 0" fill="#0044b5" fill-rule="evenodd"/><path d="M34,133.73,0,137V0H34ZM174,0V120.27L208,117V0Z" fill-rule="evenodd" fill="url(#ad505480-8f59-4b3a-87a1-bdb51d090f4e)"/><path d="M67.08,32.64h1V19.76h-1Zm6.36-13a3,3,0,0,0-3.28,3.26v6.58a3.28,3.28,0,0,0,6.56,0V28h-1v1.53a2.31,2.31,0,1,1-4.61,0v-6.7a2.31,2.31,0,1,1,4.61,0V24h1V22.91A3,3,0,0,0,73.44,19.65Zm5.37,13h1V19.76h-1Zm4.08-9.84a2.26,2.26,0,1,1,4.52,0v.34h1v-.28a3.24,3.24,0,0,0-6.47,0c0,3.59,5.49,3.64,5.49,6.73a2.3,2.3,0,1,1-4.6,0v-.71h-1v.66a3.28,3.28,0,0,0,6.56,0C88.39,26,82.89,25.92,82.89,22.8Zm8.69-2.27h3.11V32.64h1V20.53h3.08v-.77H91.58Zm12.32-.88a3,3,0,0,0-3.32,3.26v6.58a3.35,3.35,0,0,0,6.69,0V22.91A3,3,0,0,0,103.9,19.65Zm2.37,9.9A2.16,2.16,0,0,1,103.9,32a2.13,2.13,0,0,1-2.32-2.42v-6.7a2.14,2.14,0,0,1,2.32-2.43,2.16,2.16,0,0,1,2.37,2.43Zm6.1-9.79h-3.15V32.64h1v-5.3h1.89c2.41,0,3.52-1,3.52-3.05v-1.4C115.63,21,114.72,19.76,112.37,19.76Zm2.26,4.58c0,1.56-.76,2.23-2.52,2.23h-1.89v-6h2.15c1.7,0,2.26.9,2.26,2.3ZM119,21.55v.73a3.41,3.41,0,0,0,2.36-1.08V32.64h1V19.74h-.78A2.7,2.7,0,0,1,119,21.55Zm9.16-1.9a3,3,0,0,0-3.34,3.26v6.58a3.35,3.35,0,0,0,6.69,0V22.91A3,3,0,0,0,128.14,19.65Zm2.35,9.88a2.35,2.35,0,1,1-4.69,0V22.85a2.35,2.35,0,1,1,4.69,0Zm6.23-9.88a3,3,0,0,0-3.34,3.26v6.58a3.35,3.35,0,0,0,6.69,0V22.91A3,3,0,0,0,136.72,19.65Zm2.35,9.88a2.35,2.35,0,1,1-4.69,0V22.85a2.35,2.35,0,1,1,4.69,0Z" fill="#fff" fill-rule="evenodd"/><path d="M151.81,76.16a19,19,0,0,1,3.2,1,5.85,5.85,0,0,1,3.28,5.38c.05,4.06,0,8.12,0,12.17a6.39,6.39,0,0,1-4.55,6l-1.33.41H150a20,20,0,0,1-2.05-.74,6.21,6.21,0,0,1-3.84-6q0-5.79,0-11.56a6.48,6.48,0,0,1,5.83-6.57,6,6,0,0,0,.67-.17Zm2.36,12.53c0-2,0-4.09,0-6.14a2.79,2.79,0,0,0-3-3,2.82,2.82,0,0,0-2.94,3c0,4,0,8.06,0,12.09a2.83,2.83,0,0,0,1.46,2.68,3,3,0,0,0,4.47-2.54Q154.16,91.77,154.17,88.69Zm-32.61,12.47,1.33-.42A6.31,6.31,0,0,0,127.41,95c.07-5.84,0-11.69,0-17.53,0-.68-.28-1-1-1h-1.82c-1.31,0-1.36,0-1.36,1.36,0,5.38,0,10.75,0,16.13a9.47,9.47,0,0,1-.11,1.5,2.53,2.53,0,0,1-1.45,1.93,3,3,0,0,1-4.4-2.79c.07-5.64,0-11.29,0-16.93,0-.85-.27-1.26-1.16-1.21a17.38,17.38,0,0,1-1.91,0c-.77,0-1.09.27-1.09,1.06,0,5.77,0,11.55,0,17.33a5.72,5.72,0,0,0,2.86,5,19.36,19.36,0,0,0,3,1.24Zm-71.37,0a1.54,1.54,0,0,1,.37-.14c4.38-.6,5.78-4.48,5.15-8-.44-2.49-2.1-4-4.2-5.06-1.28-.67-2.58-1.29-3.81-2a3.76,3.76,0,0,1-2-3.89c.18-1.54.79-2.26,2.09-2.41a2.48,2.48,0,0,1,2.88,1.93c.2.61.24,1.46.67,1.75s1.29.12,2,.13h.81c.64,0,.92-.29.87-.93-.16-2.14-.84-4.07-2.77-5.19A17.59,17.59,0,0,0,49,76.16H47.57c-.32.07-.64.14-1,.19a5.27,5.27,0,0,0-4.38,3,7.21,7.21,0,0,0,1.62,8.57,21.55,21.55,0,0,0,2.74,1.85c1.2.74,2.46,1.37,3.63,2.15a3.46,3.46,0,0,1,1.43,3.63,2.47,2.47,0,0,1-2.45,2.23c-1.69.11-2.9-.59-3.29-1.88C45.34,94,45.34,94,43.32,94h-.8c-.72,0-1,.32-1,1.07a6.13,6.13,0,0,0,3.57,5.23,19.56,19.56,0,0,0,2.65.87Zm136.7,0,1.32-.39a5.16,5.16,0,0,0,3.54-3c1.31-3.23.83-7.16-2.74-9.22-1.42-.81-2.92-1.5-4.34-2.32a4.11,4.11,0,0,1-2.44-3.75c0-1.7.75-2.65,2.13-2.82,1.57-.19,2.49.5,2.93,2.2a2.87,2.87,0,0,1,.16.69c0,.77.44,1,1.11.93s1.34,0,2,0,1.06-.32,1-1.1a6.14,6.14,0,0,0-5.63-6,2.9,2.9,0,0,1-.48-.14h-1.21c-.36.06-.72.13-1.08.18a5.26,5.26,0,0,0-4.25,2.7,7.26,7.26,0,0,0,.25,7.47A10,10,0,0,0,183,89.7c1.31.73,2.63,1.48,3.88,2.3a3.27,3.27,0,0,1,1.37,3A2.56,2.56,0,0,1,186,97.73c-1.85.23-3.11-.48-3.57-2C181.9,94,181.9,94,180,94c-.37,0-.74,0-1.11,0-.62,0-.89.38-.82,1a6.19,6.19,0,0,0,3.81,5.38c.76.32,1.57.52,2.36.77ZM107.3,88.27a6.11,6.11,0,0,1,3,3.85c1.16,4.58-2,8.63-6.84,8.78-2,.06-4,0-6,0-.8,0-1.13-.33-1.13-1.15q0-11.08,0-22.18c0-.56.12-1.07.78-1.06a70,70,0,0,1,7.53.25,5.66,5.66,0,0,1,5,4.48c.67,2.68.18,5.07-2.22,6.79A1,1,0,0,0,107.3,88.27Zm-6.69,9.27c1.86-.14,3.85.59,5.07-1.44a4,4,0,0,0,0-4.46c-1.25-2-3.22-1.25-5-1.37Zm0-10.65c1.84,0,3.72.45,4.72-1.53A3.92,3.92,0,0,0,105,81c-1.16-1.54-2.84-1.1-4.44-1.11ZM79.13,93.15H75.8v2.18c0,1.51,0,3,0,4.53,0,.73-.29,1.06-1,1-3.64,0-3.12.42-3.13-3,0-6.58,0-13.16,0-19.75,0-1.7,0-1.7,1.75-1.7h5.14a6.65,6.65,0,0,1,7,7c0,1.11,0,2.22,0,3.33a5.88,5.88,0,0,1-2.27,4.63,1,1,0,0,0-.37,1.34c.78,2.25,1.49,4.52,2.22,6.78.3.95.11,1.24-.85,1.29-2.65.15-2.65.15-3.45-2.4-.28-.89-.55-1.79-.82-2.69S79.42,94.1,79.13,93.15Zm-3.28-3.29c.89,0,1.69,0,2.49,0a2.77,2.77,0,0,0,2.85-2.35,27.74,27.74,0,0,0,0-5.39,2.75,2.75,0,0,0-2.6-2.28c-.89-.07-1.79,0-2.73,0Zm-8.75-10c2.17,0,2,.18,2.07-2.08,0-.91-.3-1.25-1.23-1.24-3,0-6,0-9.06,0-2.51,0-2.23-.32-2.26,2.37,0,.7.3,1,1,.93,1,0,2.11,0,3.24,0v1.24c0,5.74,0,11.48,0,17.22,0,2.91-.47,2.63,2.71,2.64,1.3,0,1.39-.09,1.39-1.36V79.81C65.76,79.81,66.43,79.8,67.1,79.81ZM134.23,81c0,5.74,0,11.48,0,17.22,0,3-.49,2.68,2.66,2.69,1.34,0,1.44-.09,1.44-1.42V79.81h2.21c2,0,2,0,2-2,0-1-.33-1.29-1.29-1.28-3,0-6,0-9.06,0-2.43,0-2.16-.25-2.21,2.23,0,.86.34,1.12,1.14,1.08,1,0,2,0,3.09,0ZM88.51,98.31c0,2.82-.5,2.6,2.65,2.6,1.39,0,1.48-.09,1.48-1.49V78c0-.21.08-.47,0-.6-.24-.32-.52-.77-.86-.84a16.59,16.59,0,0,0-2,0c-1-.08-1.29.31-1.28,1.28,0,3.62,0,7.25,0,10.87C88.5,91.87,88.48,95.09,88.51,98.31ZM166,93.12c0,2.26,0,4.37,0,6.48,0,1-.3,1.34-1.27,1.32-3.44,0-2.86.31-2.87-2.79,0-6.75,0-13.5,0-20.25,0-1.31.06-1.37,1.35-1.37,1.78,0,3.56,0,5.34,0,3.9-.07,7.37,2.64,7.17,7.18a21.93,21.93,0,0,1-.33,4.68,8.69,8.69,0,0,1-2,3.14,1.19,1.19,0,0,0-.31,1.38q1.11,3.33,2.18,6.69c.34,1.07.13,1.34-1,1.34-3,0-2.38.39-3.27-2.36-.51-1.6-1-3.21-1.5-4.8a1.14,1.14,0,0,0-.81-.6C167.86,93.07,167,93.12,166,93.12Zm0-3.26c.86,0,1.63,0,2.39,0A3,3,0,0,0,171.52,87a36.62,36.62,0,0,0,0-4.32,2.9,2.9,0,0,0-2.46-2.79,19.93,19.93,0,0,0-3,0ZM16.71,88.67c0-3.62,0-7.25,0-10.87,0-1,.28-1.34,1.27-1.31,1.94.06,3.89,0,5.84,0a6.77,6.77,0,0,1,7.06,7.1c-.13,3.35-.15,6.72,0,10.07a6.72,6.72,0,0,1-6.93,7.22c-2,0-4.09,0-6.14,0-.83,0-1.11-.35-1.1-1.17C16.73,96.06,16.71,92.37,16.71,88.67Zm4.16,8.82c1.19,0,2.26.07,3.33,0A2.55,2.55,0,0,0,26.64,95a5.49,5.49,0,0,0,.05-.7c0-3.73,0-7.46,0-11.18,0-1.8-.54-2.76-1.9-3a32.79,32.79,0,0,0-3.91-.3ZM38.34,79.27c0-3.16.43-2.73-2.8-2.76-1.25,0-1.29,0-1.29,1.31,0,6.79,0,13.58,0,20.36,0,3-.57,2.69,2.82,2.74,1,0,1.29-.33,1.28-1.29,0-3.63,0-7.26,0-10.89C38.34,85.58,38.36,82.43,38.34,79.27ZM50.23,42.35a19.24,19.24,0,0,1,3.39,1.12,6.06,6.06,0,0,1,3.26,5c.07.72-.18,1.09-1,1-.33,0-.66,0-1,0-1.82,0-1.82,0-2.31-1.78a2.76,2.76,0,0,0-2.85-1.91A2.68,2.68,0,0,0,47,47.88a1.54,1.54,0,0,0,0,.3c0,4.45-.06,8.89,0,13.34A2.65,2.65,0,0,0,49.73,64a2.76,2.76,0,0,0,2.92-2.35c.15-1.15.64-1.58,1.76-1.41a8.13,8.13,0,0,0,1.21,0c1.21,0,1.38.21,1.22,1.43a6.81,6.81,0,0,1-5.41,5.52,7,7,0,0,1-8.18-4,7.65,7.65,0,0,1-.45-2.65c0-3.65,0-7.29,0-10.94,0-4,2.14-6.5,6.16-7.06a2.64,2.64,0,0,0,.48-.14Zm77.18,0a2.13,2.13,0,0,1-.37.14c-4,.58-6.13,3-6.14,7.08,0,3.61,0,7.23,0,10.84a8.39,8.39,0,0,0,.57,3c1.25,2.91,4.41,4.37,7.87,3.79A6.89,6.89,0,0,0,135,61.45c.09-.84-.15-1.29-1.07-1.23a12.15,12.15,0,0,1-1.81,0c-.84-.07-1.2.25-1.3,1.11A2.8,2.8,0,0,1,128,64,2.85,2.85,0,0,1,125,61.25q-.09-6.37,0-12.75a2.67,2.67,0,0,1,2.61-2.68,2.83,2.83,0,0,1,3.12,2c.45,1.72.45,1.72,2.24,1.72h.9c1,0,1.23-.23,1.08-1.28a6.16,6.16,0,0,0-3.28-4.77,21.29,21.29,0,0,0-3.3-1.1ZM166,64.06a5.71,5.71,0,0,0-1.3-.35c-1.93,0-3.86,0-5.9,0V62.5c0-5.62,0-11.24,0-16.86,0-3.4.54-2.88-3-2.94-.82,0-1.14.29-1.14,1.11q0,11.1,0,22.18c0,.83.35,1.12,1.15,1.11,3.05,0,6.09,0,9.14,0a3.24,3.24,0,0,0,1.05-.4ZM105.28,53.89c0,3.51,0,7,0,10.53,0,3-.33,2.66,2.69,2.67,1.4,0,1.46-.06,1.47-1.48q0-10.15,0-20.3c0-3,.29-2.54-2.63-2.62a1.57,1.57,0,0,0-1.69,1.08c-1,2.31-2.15,4.6-3.23,6.9-.43.91-.88,1.82-1.4,2.88-1.39-3-2.78-5.74-3.92-8.58-.7-1.75-1.64-2.56-3.57-2.3-1.26.18-1.37.13-1.37,1.4q0,10.11,0,20.2c0,3.2-.39,2.8,2.84,2.82,1.19,0,1.3-.11,1.3-1.34,0-3.61,0-7.23,0-10.85v-1a2,2,0,0,1,.68.84c.93,2,1.88,3.91,2.78,5.89a1.28,1.28,0,0,0,1.37.88,1.19,1.19,0,0,0,1.21-.79c1.07-2.3,2.18-4.58,3.27-6.86ZM69.13,64.27c0,3.21-.37,2.8,2.84,2.82,1.21,0,1.32-.1,1.32-1.32q0-10.86,0-21.7c0-.17.07-.39,0-.5-.26-.31-.54-.75-.87-.82a14.8,14.8,0,0,0-2-.06c-1-.07-1.31.33-1.3,1.29,0,3,0,6,0,8.94,0,.35,0,.71,0,1.1-1.6,0-3.08,0-4.55,0-.78,0-1-.27-.94-1,0-2.55,0-5.09,0-7.64,0-3.09.35-2.68-2.75-2.7-1.32,0-1.37,0-1.37,1.34,0,6.73,0,13.46,0,20.19,0,3.28-.49,2.79,2.88,2.86.92,0,1.26-.31,1.25-1.22,0-2.48,0-5,0-7.44,0-.35,0-.7.07-1.08h5.46C69.13,59.72,69.12,62,69.13,64.27Zm81.54,2.82c1.49,0,1.6-.11,1.28-1.53-.95-4.37-1.93-8.74-2.9-13.11-.64-2.87-1.3-5.74-1.92-8.61-.17-.79-.51-1.24-1.42-1.15s-1.74,0-2.61,0c-1.4,0-1.44,0-1.76,1.47q-1,4.69-2.09,9.39l-2.76,12.32c-.2.88,0,1.18.92,1.21.67,0,1.34,0,2,0a1,1,0,0,0,1.13-.86c.12-.73.33-1.44.45-2.16.08-.54.33-.72.86-.7,1.27,0,2.55,0,3.82,0,1.95,0,1.59-.37,2,1.72s.4,2,2.35,2ZM141.89,60c.76-3.57,1.52-7.08,2.27-10.59l.21,0L146.62,60ZM86.11,46c2.48,0,2.13.48,2.19-2.26,0-.81-.28-1-1-1-3,0-6,0-9,0-.88,0-1.19.34-1.19,1.18q0,11,0,22c0,.89.31,1.25,1.24,1.24,2.91,0,5.83-.06,8.74,0,1,0,1.35-.26,1.31-1.29-.09-2.36.27-2.11-2.18-2.12H81.24V57.28h3c2.5,0,2.16.36,2.21-2.28,0-.79-.26-1.08-1-1.06-1.37,0-2.73,0-4.14,0V46C82.91,46,84.51,46,86.11,46Zm31.24-.6c0-3,.32-2.66-2.68-2.67-1.4,0-1.48.07-1.48,1.47V64.26c0,3.31-.28,2.8,2.84,2.83,1.21,0,1.32-.11,1.32-1.32V54.92C117.35,51.74,117.36,48.56,117.35,45.38Z" fill="#fff"/></svg>