<svg id="a82d0edf-46b3-4d11-86ed-52c2c32b14c1" data-name="Слой 1" xmlns="http://www.w3.org/2000/svg" xmlns:xlink="http://www.w3.org/1999/xlink" width="360" height="237" viewBox="0 0 360 237"><defs><linearGradient id="63562a5e-7c55-4ecf-bd5b-0ce173145782" x1="180" y1="237" x2="180" gradientUnits="userSpaceOnUse"><stop offset="0" stop-color="#0044b5"/><stop offset="1" stop-color="#2461c5"/></linearGradient></defs><title>icis-top-100-big</title><polygon points="0 0 0 237 360 202.4 360 0 0 0" fill="#0044b5" fill-rule="evenodd"/><polygon points="0 0 0 237 360 202.4 360 0 0 0" fill="#0044b5" fill-rule="evenodd"/><path d="M58.85,231.34,0,237V0H58.85ZM301.15,0V208.06L360,202.4V0Z" fill-rule="evenodd" fill="url(#63562a5e-7c55-4ecf-bd5b-0ce173145782)"/><path d="M116.1,56.46h1.73V34.19H116.1Zm11-22.47c-4,0-5.68,2.42-5.68,5.64V51c0,3.21,1.65,5.63,5.68,5.63s5.67-2.42,5.67-5.63V48.47h-1.65v2.64c0,2.39-1.09,4.17-4,4.17s-4-1.78-4-4.17V39.53c0-2.38,1.09-4.2,4-4.2s4,1.82,4,4.2v1.94h1.65V39.63C132.79,36.41,131.14,34,127.12,34Zm9.28,22.47h1.73V34.19H136.4Zm7.07-17c0-2.36,1.05-4.11,3.91-4.11s3.91,1.78,3.91,4.14V40h1.65v-.48c0-3.21-1.61-5.57-5.6-5.57s-5.6,2.2-5.6,5.54c0,6.21,9.51,6.3,9.51,11.65,0,2.38-1.09,4.1-4,4.1s-4-1.72-4-4.1V49.94h-1.65v1.14c0,3.21,1.65,5.57,5.68,5.57S153,54.29,153,51.08C153,44.94,143.47,44.85,143.47,39.44Zm15-3.92h5.38V56.46h1.72V35.52H171V34.19H158.51ZM179.83,34c-4,0-5.75,2.39-5.75,5.64V51c0,3.24,1.76,5.63,5.75,5.63s5.82-2.39,5.82-5.63V39.63C185.65,36.38,183.89,34,179.83,34Zm4.09,17.12c0,2.42-1.16,4.2-4.09,4.2s-4-1.78-4-4.2V39.53c0-2.42,1.13-4.2,4-4.2s4.09,1.78,4.09,4.2Zm10.57-16.92H189V56.46h1.73V47.29H194c4.17,0,6.09-1.74,6.09-5.28V39.59C200.13,36.35,198.55,34.19,194.49,34.19Zm3.91,7.92c0,2.7-1.32,3.85-4.36,3.85h-3.27V35.52h3.72c2.93,0,3.91,1.56,3.91,4Zm7.52-4.84v1.27a5.89,5.89,0,0,0,4.1-1.87V56.46h1.73V34.15h-1.36A4.66,4.66,0,0,1,205.92,37.27ZM221.79,34c-4,0-5.79,2.36-5.79,5.64V51c0,3.24,1.76,5.63,5.79,5.63s5.79-2.39,5.79-5.63V39.63C227.58,36.35,225.81,34,221.79,34Zm4.06,17.09c0,2.45-1.17,4.23-4.06,4.23s-4.06-1.78-4.06-4.23V39.53c0-2.42,1.16-4.2,4.06-4.2s4.06,1.78,4.06,4.2ZM236.64,34c-4,0-5.79,2.36-5.79,5.64V51c0,3.24,1.77,5.63,5.79,5.63s5.79-2.39,5.79-5.63V39.63C242.43,36.35,240.66,34,236.64,34Zm4.06,17.09c0,2.45-1.17,4.23-4.06,4.23s-4.06-1.78-4.06-4.23V39.53c0-2.42,1.16-4.2,4.06-4.2s4.06,1.78,4.06,4.2Z" fill="#fff" fill-rule="evenodd"/><path d="M262.74,131.76a33,33,0,0,1,5.55,1.8,10.13,10.13,0,0,1,5.67,9.32c.08,7,.07,14,0,21.05a11,11,0,0,1-7.89,10.35l-2.29.72H259.6c-1.19-.42-2.42-.75-3.56-1.28a10.75,10.75,0,0,1-6.64-10.31q-.08-10,0-20a11.21,11.21,0,0,1,10.09-11.36c.39-.06.77-.2,1.16-.29Zm4.09,21.68c0-3.55.06-7.09,0-10.64-.08-3.2-2.12-5.15-5.16-5.12a4.9,4.9,0,0,0-5.1,5.23c-.05,7,0,14,0,20.92a4.93,4.93,0,0,0,2.53,4.64c2.84,1.6,7.75.28,7.74-4.4C266.82,160.53,266.82,157,266.83,153.44ZM210.4,175l2.29-.72c4.4-1.37,7.78-5.4,7.83-9.88.12-10.11,0-20.22.06-30.33,0-1.17-.49-1.73-1.66-1.72s-2.09,0-3.14,0c-2.27,0-2.36.1-2.36,2.36q0,13.95,0,27.9a20.67,20.67,0,0,1-.19,2.6,4.41,4.41,0,0,1-2.51,3.33,5.17,5.17,0,0,1-7.62-4.82c.12-9.76,0-19.52.06-29.29,0-1.47-.48-2.18-2-2.09a30.64,30.64,0,0,1-3.32,0c-1.32-.07-1.89.46-1.88,1.83,0,10,0,20,.05,30a9.89,9.89,0,0,0,4.95,8.7,33.84,33.84,0,0,0,5.27,2.15ZM86.87,175a3.14,3.14,0,0,1,.64-.25c7.58-1,10-7.74,8.92-13.83-.78-4.31-3.64-6.84-7.28-8.75-2.21-1.16-4.46-2.24-6.59-3.54a6.53,6.53,0,0,1-3.4-6.73c.32-2.67,1.37-3.91,3.62-4.16,2.52-.29,4.15.82,5,3.34.35,1,.43,2.53,1.16,3s2.24.2,3.4.23c.46,0,.93,0,1.39,0,1.11,0,1.61-.5,1.52-1.6-.28-3.7-1.46-7-4.8-9-1.69-1-3.76-1.35-5.65-2H82.33c-.56.11-1.11.23-1.68.32-3.33.54-6.17,2-7.58,5.15-2,4.49-2,10.69,2.81,14.83a37.48,37.48,0,0,0,4.74,3.2c2.07,1.28,4.25,2.38,6.27,3.72,2.22,1.48,2.84,3.73,2.48,6.27a4.26,4.26,0,0,1-4.23,3.87c-2.92.18-5-1-5.69-3.25-1-3.28-1-3.28-4.47-3.28H73.59c-1.24,0-1.81.56-1.67,1.84a10.58,10.58,0,0,0,6.16,9.05,36.39,36.39,0,0,0,4.6,1.51Zm236.59,0,2.29-.68a8.9,8.9,0,0,0,6.12-5.25c2.27-5.59,1.44-12.39-4.74-15.95-2.46-1.41-5.05-2.6-7.52-4s-4.27-3.38-4.21-6.5c.06-2.94,1.29-4.59,3.68-4.87,2.72-.33,4.31.86,5.08,3.81a4.2,4.2,0,0,1,.27,1.18c0,1.34.76,1.66,1.92,1.62s2.32,0,3.48,0c1.38.05,1.83-.56,1.75-1.91-.38-5.78-4-9.69-9.74-10.44a6.48,6.48,0,0,1-.83-.24h-2.09l-1.87.31c-3.13.5-5.92,1.73-7.36,4.66-2.1,4.3-2.25,8.71.44,12.93,1.61,2.53,4,4.1,6.6,5.52,2.27,1.27,4.55,2.55,6.72,4a5.7,5.7,0,0,1,2.37,5.16c0,2.66-1.57,4.48-3.92,4.76-3.2.39-5.37-.83-6.17-3.49-.89-3-.89-3-4.16-3-.64,0-1.28,0-1.92,0-1.08.08-1.53.66-1.41,1.75.49,4.31,2.51,7.55,6.58,9.3,1.31.57,2.73.9,4.1,1.34ZM185.72,152.7a10.52,10.52,0,0,1,5.14,6.67c2,7.92-3.42,14.92-11.83,15.18-3.43.1-6.86,0-10.29,0-1.39,0-2-.57-2-2q0-19.18,0-38.36c0-1,.2-1.86,1.34-1.84a123.06,123.06,0,0,1,13,.43,9.76,9.76,0,0,1,8.66,7.75c1.18,4.63.32,8.77-3.83,11.75C185.9,152.38,185.86,152.5,185.72,152.7Zm-11.59,16c3.21-.24,6.66,1,8.77-2.48a7,7,0,0,0,0-7.72c-2.16-3.44-5.58-2.17-8.75-2.36Zm0-18.41c3.19.05,6.45.77,8.18-2.66a6.8,6.8,0,0,0-.49-7.56c-2-2.65-4.92-1.9-7.69-1.91ZM137,161.14h-5.76v3.78c0,2.61,0,5.22,0,7.84,0,1.26-.49,1.82-1.73,1.81-6.31,0-5.41.72-5.43-5.11,0-11.39,0-22.77,0-34.15,0-3,0-3,3-3s5.93,0,8.89,0c6.33,0,12.41,4.45,12.09,12.17-.08,1.92,0,3.84,0,5.75a10.15,10.15,0,0,1-3.93,8,1.75,1.75,0,0,0-.64,2.33c1.35,3.89,2.57,7.82,3.84,11.73.53,1.64.2,2.13-1.47,2.23-4.59.26-4.59.26-6-4.15-.49-1.55-1-3.1-1.43-4.65S137.47,162.78,137,161.14Zm-5.67-5.7c1.54,0,2.93,0,4.31,0,2.47-.08,4.68-1.62,4.93-4.08a47.48,47.48,0,0,0,0-9.31,4.76,4.76,0,0,0-4.5-4c-1.54-.12-3.1,0-4.73,0Zm-15.15-17.38c3.75,0,3.54.32,3.59-3.59,0-1.58-.53-2.16-2.12-2.14-5.23.06-10.46,0-15.69,0-4.35,0-3.86-.55-3.91,4.09,0,1.22.52,1.65,1.69,1.62,1.83,0,3.66,0,5.61,0v2.15c0,9.93,0,19.85,0,29.78,0,5-.83,4.56,4.68,4.58,2.25,0,2.41-.16,2.41-2.36V138.06Zm116.19,2.07c0,9.93,0,19.86,0,29.79,0,5.11-.85,4.63,4.6,4.65,2.32,0,2.48-.17,2.48-2.46q0-15.93,0-31.87v-2.18h3.84c3.49,0,3.42,0,3.49-3.52,0-1.68-.57-2.24-2.23-2.21-5.22.07-10.45,0-15.68,0-4.21,0-3.74-.42-3.83,3.86,0,1.48.58,1.94,2,1.87,1.68-.08,3.36,0,5.34,0Zm-79.13,29.94c0,4.88-.86,4.49,4.58,4.5,2.4,0,2.57-.17,2.57-2.57V134.91c0-.35.13-.8,0-1-.41-.57-.9-1.34-1.48-1.46a26.63,26.63,0,0,0-3.47-.09c-1.68-.14-2.23.53-2.21,2.21.08,6.27,0,12.54,0,18.81C153.18,158.93,153.14,164.5,153.19,170.07Zm134.16-9c0,3.91-.05,7.56,0,11.22,0,1.63-.52,2.31-2.21,2.28-5.95-.09-4.94.52-5-4.83,0-11.68,0-23.35,0-35,0-2.27.1-2.37,2.34-2.38,3.08,0,6.16.05,9.24,0,6.76-.11,12.76,4.57,12.41,12.41-.12,2.72.12,5.54-.57,8.11-.53,2-2.09,3.81-3.51,5.43a2.06,2.06,0,0,0-.54,2.39q1.94,5.76,3.77,11.57c.59,1.85.23,2.33-1.72,2.31-5.18-.05-4.1.69-5.65-4.08-.89-2.76-1.65-5.55-2.6-8.29a2,2,0,0,0-1.4-1.05C290.53,161,289.08,161.09,287.35,161.09Zm.07-5.64c1.48,0,2.81,0,4.13,0a5.18,5.18,0,0,0,5.3-4.93,60.06,60.06,0,0,0,0-7.47,5,5,0,0,0-4.25-4.83,34.45,34.45,0,0,0-5.19-.05Zm-258.5-2c0-6.27,0-12.55,0-18.82,0-1.65.49-2.3,2.19-2.25,3.37.09,6.74,0,10.11,0,6.85,0,12.51,5,12.22,12.29-.22,5.8-.25,11.62,0,17.42.3,6.74-4.25,12.28-12,12.48-3.54.1-7.09,0-10.63,0-1.43,0-1.92-.61-1.91-2C29,166.18,28.92,159.79,28.92,153.4Zm7.2,15.25c2.05,0,3.92.11,5.76,0a4.45,4.45,0,0,0,4.24-4.29c0-.41.07-.82.07-1.22,0-6.45,0-12.9,0-19.34,0-3.11-.93-4.77-3.3-5.23a54.3,54.3,0,0,0-6.76-.53Zm30.24-31.52c0-5.47.74-4.73-4.84-4.77-2.17,0-2.24.08-2.24,2.27,0,11.74,0,23.48,0,35.22,0,5.25-1,4.65,4.88,4.74,1.65,0,2.24-.57,2.22-2.24-.07-6.28,0-12.56,0-18.83C66.37,148.05,66.39,142.59,66.36,137.13ZM86.93,73.27c2,.62,4.09,1,5.87,1.93a10.44,10.44,0,0,1,5.64,8.64c.12,1.24-.31,1.88-1.63,1.8-.58,0-1.16,0-1.74,0-3.14,0-3.14,0-4-3.07a4.82,4.82,0,0,0-4.94-3.32,4.66,4.66,0,0,0-4.72,3.59,3,3,0,0,0-.07.51c0,7.7-.1,15.4.05,23.09,0,2.46,2.19,4.13,4.68,4.25a4.77,4.77,0,0,0,5-4.06c.26-2,1.11-2.73,3.05-2.44a14.43,14.43,0,0,0,2.08,0c2.1,0,2.4.37,2.13,2.48-.6,4.57-4.47,8.51-9.38,9.54-6.14,1.29-12.05-1.55-14.16-7a13.4,13.4,0,0,1-.78-4.58C74,98.34,74,92,74,85.71c0-7,3.7-11.23,10.67-12.21a4.87,4.87,0,0,0,.83-.23Zm133.58,0a3.07,3.07,0,0,1-.64.23c-7,1-10.61,5.19-10.62,12.25,0,6.25-.07,12.51.05,18.76a14.15,14.15,0,0,0,1,5.21c2.16,5,7.63,7.57,13.61,6.56a11.9,11.9,0,0,0,9.77-10c.16-1.46-.26-2.23-1.86-2.13a23.2,23.2,0,0,1-3.12,0c-1.45-.12-2.09.44-2.25,1.91a4.85,4.85,0,0,1-5,4.59,4.91,4.91,0,0,1-5.06-4.72q-.16-11,0-22.06a4.64,4.64,0,0,1,4.51-4.64,4.91,4.91,0,0,1,5.4,3.4c.78,3,.78,3,3.88,3,.52,0,1,0,1.56,0,1.79,0,2.13-.4,1.86-2.21A10.6,10.6,0,0,0,228,75.16a35.93,35.93,0,0,0-5.7-1.89Zm66.79,37.55a9.19,9.19,0,0,0-2.24-.6c-3.34-.07-6.69,0-10.22,0v-2.06c0-9.73,0-19.45,0-29.17,0-5.88.94-5-5.18-5.1-1.41,0-2,.51-2,1.93q0,19.18,0,38.38c0,1.43.6,1.92,2,1.91,5.27,0,10.54,0,15.81,0a5.61,5.61,0,0,0,1.81-.69ZM182.21,93.22q0,9.11,0,18.22c0,5.16-.57,4.61,4.66,4.62,2.42,0,2.53-.1,2.53-2.56q0-17.55,0-35.11c0-5.21.49-4.41-4.57-4.54a2.73,2.73,0,0,0-2.92,1.86c-1.81,4-3.71,8-5.59,12-.75,1.58-1.52,3.14-2.42,5-2.4-5.18-4.82-9.92-6.79-14.85-1.21-3-2.84-4.42-6.17-4-2.19.3-2.38.22-2.38,2.42q0,17.48,0,34.94c0,5.55-.67,4.85,4.92,4.88,2.06,0,2.25-.18,2.25-2.31q0-9.39,0-18.77V93.2a3.42,3.42,0,0,1,1.17,1.46c1.62,3.39,3.27,6.77,4.82,10.19a2.2,2.2,0,0,0,2.36,1.53,2,2,0,0,0,2.1-1.38c1.85-4,3.77-7.91,5.66-11.87Zm-62.56,18c0,5.56-.64,4.85,4.92,4.88,2.09,0,2.28-.18,2.28-2.29q0-18.76,0-37.54c0-.29.12-.67,0-.85-.45-.54-.93-1.31-1.51-1.43a26.47,26.47,0,0,0-3.46-.09c-1.67-.12-2.26.57-2.24,2.23.07,5.15,0,10.31,0,15.46,0,.61,0,1.22-.08,1.9-2.77,0-5.33-.07-7.87,0-1.36,0-1.66-.46-1.64-1.71.06-4.4,0-8.81,0-13.21,0-5.35.62-4.64-4.75-4.68-2.28,0-2.38.09-2.38,2.32,0,11.64,0,23.29,0,34.93,0,5.67-.85,4.83,5,5,1.58,0,2.18-.54,2.16-2.12-.07-4.29,0-8.58,0-12.86,0-.61.07-1.22.11-1.89h9.46C119.65,103.31,119.63,107.25,119.65,111.18Zm141.13,4.88c2.57,0,2.76-.19,2.22-2.64q-2.49-11.36-5-22.69c-1.1-5-2.24-9.92-3.32-14.89-.3-1.37-.88-2.14-2.46-2s-3,0-4.52,0c-2.42,0-2.5.09-3,2.54q-1.78,8.13-3.61,16.24-2.4,10.66-4.79,21.32c-.34,1.53.05,2,1.6,2.09,1.16,0,2.32,0,3.48,0a1.63,1.63,0,0,0,1.94-1.5c.22-1.25.59-2.48.78-3.73.14-.93.57-1.23,1.5-1.21,2.2,0,4.4,0,6.6,0,3.38.07,2.77-.64,3.53,3,.72,3.42.69,3.42,4.07,3.42Zm-15.21-12.32c1.33-6.18,2.64-12.25,3.94-18.32l.36,0,3.89,18.36ZM149,79.55c4.3-.07,3.68.82,3.79-3.92,0-1.39-.49-1.79-1.82-1.78q-7.83.09-15.65,0c-1.52,0-2.05.59-2.05,2.05q0,19,0,38.05c0,1.54.53,2.16,2.14,2.14,5-.07,10.09-.1,15.12,0,1.75,0,2.34-.46,2.28-2.24-.15-4.09.46-3.65-3.79-3.67h-8.45V99.09c1.77,0,3.44,0,5.11,0,4.31,0,3.73.63,3.82-3.94,0-1.36-.45-1.87-1.81-1.82-2.36.07-4.72,0-7.15,0V79.55C143.5,79.55,146.27,79.59,149,79.55Zm54.06-1c0-5.23.56-4.61-4.63-4.63-2.43,0-2.56.12-2.56,2.54q0,17.39,0,34.75c0,5.72-.49,4.83,4.91,4.89,2.09,0,2.28-.18,2.28-2.29q0-9.37,0-18.76C203.11,89.51,203.12,84,203.1,78.51Z" fill="#fff"/></svg>