<svg id="90349f1b-9195-4f6a-a2a7-288fe6de02e0" data-name="Слой 1" xmlns="http://www.w3.org/2000/svg" width="14" height="20" viewBox="0 0 14 20"><title>location</title><path d="M7,0A7,7,0,0,0,0,7,7.68,7.68,0,0,0,.45,9.47C1.63,12.61,6,19.27,6.16,19.55a1,1,0,0,0,1.68,0c.18-.28,4.53-6.94,5.71-10.08A7.68,7.68,0,0,0,14,7,7,7,0,0,0,7,0Zm4.67,8.76A63.76,63.76,0,0,1,7,17.15,63.76,63.76,0,0,1,2.33,8.76,5.46,5.46,0,0,1,2,7,5,5,0,0,1,12,7,5.46,5.46,0,0,1,11.67,8.76ZM7,5A2,2,0,1,0,9,7,2,2,0,0,0,7,5Z" fill="#1680db" fill-rule="evenodd"/></svg>