<svg id="d95df505-e33b-43b2-bda5-681e08801ced" data-name="Слой 1" xmlns="http://www.w3.org/2000/svg" width="254" height="64" viewBox="0 0 254 64"><title>logo-footer</title><path d="M111.84,45.59h4v-17h7v17h4V24.86h-15Zm26.38-20.73-8,20.73h4.12l1.7-4.27h8.5l1.63,4.27h4.13l-8-20.73Zm-.76,12.61,2.79-7.12L143,37.47Zm24.53-12a14.19,14.19,0,0,0-4.93-.62h-4.2V45.59h4V36.81a17.56,17.56,0,0,0,4.18-.33,5.86,5.86,0,0,0,3.1-2,5.62,5.62,0,0,0,1.14-3.6,6.28,6.28,0,0,0-.87-3.37A5.06,5.06,0,0,0,162,25.48Zm-.92,6.57a1.9,1.9,0,0,1-.92.7,6.85,6.85,0,0,1-2.07.21h-1.26V28.7h1.12a5.37,5.37,0,0,1,2.52.41,1.89,1.89,0,0,1,.94,1.76A2.07,2.07,0,0,1,161.07,32.05Zm5.75-3.3h3.7V45.59h4V28.75h3.79V24.86H166.82Zm25,3.93h-7V24.86h-4V45.59h4V36.5h7v9.09h4V24.86h-4Zm9.06,12.91h11.38V41.71h-7.44V36.26h7.44V32.47h-7.44V28.72h7.44V24.86H200.91ZM225,25.48a14.16,14.16,0,0,0-4.92-.62h-4.21V45.59h4V36.81a17.62,17.62,0,0,0,4.18-.33,5.87,5.87,0,0,0,3.09-2,5.62,5.62,0,0,0,1.14-3.6,6.28,6.28,0,0,0-.87-3.37A5,5,0,0,0,225,25.48Zm-.92,6.57a1.87,1.87,0,0,1-.91.7,6.94,6.94,0,0,1-2.07.21h-1.26V28.7H221a5.45,5.45,0,0,1,2.53.41,1.9,1.9,0,0,1,.93,1.76A2.07,2.07,0,0,1,224.1,32.05Zm16.75,1.2a12.75,12.75,0,0,0-4.12-.57h-.87V24.86h-4V45.59h5.83a9.49,9.49,0,0,0,3.74-.61,5.93,5.93,0,0,0,2.4-2.1,6.12,6.12,0,0,0,1-3.61,6.24,6.24,0,0,0-1.2-3.85A6,6,0,0,0,240.85,33.25Zm-.71,8a6.11,6.11,0,0,1-3.29.61h-1V36.2h.82q4.31,0,4.3,2.95A2.37,2.37,0,0,1,240.14,41.22Zm7.65-16.36V45.59h3.94V24.86ZM115.73,55.43a3.6,3.6,0,1,0,3.65,3.6A3.58,3.58,0,0,0,115.73,55.43Zm0,6.07A2.39,2.39,0,0,1,113.35,59a2.36,2.36,0,0,1,2.36-2.48A2.39,2.39,0,0,1,118.09,59,2.36,2.36,0,0,1,115.73,61.5Zm8.53,0a2.48,2.48,0,0,1,0-5,2.82,2.82,0,0,1,2,.86l.79-.9a3.64,3.64,0,0,0-2.74-1.08,3.6,3.6,0,0,0,0,7.2,3.61,3.61,0,0,0,2.84-1.24l-.79-.79A2.73,2.73,0,0,1,124.26,61.5Zm8.89-3.06h-3.34v-2.9h-1.23v7h1.23V59.57h3.34v2.94h1.23v-7h-1.23Zm7.39-3a3.6,3.6,0,1,0,3.65,3.6A3.58,3.58,0,0,0,140.54,55.43Zm0,6.07A2.39,2.39,0,0,1,138.16,59a2.36,2.36,0,0,1,2.36-2.48A2.39,2.39,0,0,1,142.9,59,2.36,2.36,0,0,1,140.54,61.5Zm9.69-2.61a1.66,1.66,0,0,0,1-1.55,1.58,1.58,0,0,0-.47-1.18,2.53,2.53,0,0,0-1.83-.62h-3.14v7H149c1.56,0,2.59-.67,2.59-1.91A1.71,1.71,0,0,0,150.23,58.89ZM147,56.63h1.77c.79,0,1.23.34,1.23.88s-.53,1-1.32,1H147Zm2,4.79h-2V59.51H149c1,0,1.44.35,1.44.94S149.88,61.42,149,61.42Zm6.83-5.92-3.08,7h1.26l.72-1.68h3.31l.71,1.68h1.3l-3.08-7Zm-.65,4.24,1.2-2.78,1.21,2.78Zm11.35-1.3h-3.34v-2.9H162v7h1.23V59.57h3.34v2.94h1.23v-7h-1.23Zm10.32,4.07h1.22v-7h-1.22Zm-3.46-4.46h-1.61V55.54H170.6v7h2.82c1.62,0,2.64-.88,2.64-2.28S175,58.05,173.43,58.05Zm0,3.36h-1.58V59.12h1.56c.93,0,1.46.38,1.46,1.1S174.31,61.41,173.4,61.41Zm14.85-2.52a1.66,1.66,0,0,0,1-1.55,1.58,1.58,0,0,0-.47-1.18,2.53,2.53,0,0,0-1.83-.62h-3.14v7h3.24c1.56,0,2.59-.67,2.59-1.91A1.71,1.71,0,0,0,188.25,58.89ZM185,56.63h1.77c.79,0,1.23.34,1.23.88s-.53,1-1.32,1H185Zm2,4.79h-2V59.51H187c1,0,1.44.35,1.44.94S187.9,61.42,187.06,61.42Zm10.71-1.18c1.23-1,1.82-1.6,1.82-2.7a2.09,2.09,0,0,0-2.31-2.09,2.86,2.86,0,0,0-2.58,1.46l.87.67c.54-.69,1-1,1.62-1a1,1,0,0,1,1.13,1.08c0,.63-.35,1.08-1.31,1.88l-2.41,2v1h5.06V61.43h-3.33Zm6.58-4.81c-1.84,0-3.06,1.61-3.06,3.6s1.2,3.6,3,3.6,3.06-1.61,3.06-3.6S206.18,55.43,204.35,55.43Zm0,6.09c-1.09,0-1.79-1.12-1.79-2.49s.69-2.5,1.77-2.5,1.79,1.12,1.79,2.5S205.44,61.52,204.35,61.52Zm7.6-6.09c-1.84,0-3.06,1.61-3.06,3.6s1.2,3.6,3,3.6S215,61,215,59,213.78,55.43,212,55.43Zm0,6.09c-1.09,0-1.79-1.12-1.79-2.49s.69-2.5,1.77-2.5,1.79,1.12,1.79,2.5S213,61.52,212,61.52Zm4.23-5.43.26,1,1.26-.35v5.77h1.22v-7h-.86ZM225,62.51h1.22V56.65h3.49V55.54H225Zm9-7.08a3.6,3.6,0,1,0,3.65,3.6A3.58,3.58,0,0,0,234,55.43Zm0,6.07A2.39,2.39,0,0,1,231.61,59,2.36,2.36,0,0,1,234,56.55,2.39,2.39,0,0,1,236.35,59,2.36,2.36,0,0,1,234,61.5Zm10.9-6H240v1a10.34,10.34,0,0,1-.89,4.88h-.68V64h1.08l.12-1.49h4.93V64h1l.17-2.59h-.87Zm-1.23,5.87h-3.23a9.16,9.16,0,0,0,.76-4v-.79h2.47Zm9-5.87-1.92,4.05-2.18-4.05h-1.38l2.92,5.28a1.38,1.38,0,0,1-1.1.75,1.65,1.65,0,0,1-.86-.22l-.47.92a2.76,2.76,0,0,0,1.37.35A2.4,2.4,0,0,0,251.27,61L254,55.54ZM18.13,24.86H13.67L9.28,31.51,4.9,24.86H.44l6.61,10L0,45.59H4.49l4.8-7.29,4.79,7.29h4.47l-7-10.68Zm7.63,13.4V24.86h-4V45.59h3.45l7.77-13v13h4V24.86H33.63Zm35.51-13.4H57.41L52.53,39.32,47.7,24.86H43.83l-3.6,20.73h3.86L46.38,32.5l4.39,13.09h3.5L58.69,32.5l2.24,13.09h3.83ZM88,18.71c-10.77,0-19.52,7.82-19.52,17.42S77.2,53.56,88,53.56s19.51-7.82,19.51-17.43S98.73,18.71,88,18.71ZM88,51c-9.35,0-17-6.67-17-14.88s7.61-14.87,17-14.87,17,6.67,17,14.87S97.31,51,88,51Zm0-26.43c-7,0-12.62,5.19-12.62,11.55S81,47.68,88,47.68a13.49,13.49,0,0,0,6.67-1.74l-1.28-2.21A10.86,10.86,0,0,1,88,45.14,11.07,11.07,0,0,1,84,44.42l1.46-3.94L96,36.31A4.76,4.76,0,0,0,98.82,33a4.52,4.52,0,0,0-1-4.09A13,13,0,0,0,88,24.58ZM81.75,43.2a8.7,8.7,0,0,1-3.84-7.07c0-4.88,4.38-8.87,9.8-9ZM96.33,32.43A2.19,2.19,0,0,1,95,34l-8.33,3.31,3.67-9.87a10.11,10.11,0,0,1,5.55,3.22A2,2,0,0,1,96.33,32.43ZM7.29,3.12l-3.11,3,0,.12,1.48,3,.88-.44L5.36,6.32,8,3.71Zm-2.41.59-.7-.59-3.11,3,0,.12,1.47,3,.89-.44L2.25,6.32Zm10,1.62L12.79,0h-1L9.12,9.76h1.09l2.13-7.89,2.14,5.21h.06l5-5.23L17.39,9.76h1.12L21.14,0H19.91Zm13.5,1.24a4,4,0,0,0,.27-1.41A2.63,2.63,0,0,0,25.87,2.4a4.45,4.45,0,0,0-4.21,4.46,3,3,0,0,0,3.21,3.07,4.17,4.17,0,0,0,2.84-1.08l-.56-.71A3.3,3.3,0,0,1,24.92,9a2,2,0,0,1-2.18-2.17,2,2,0,0,1,0-.25ZM25.82,3.3a1.71,1.71,0,0,1,1.81,1.86,2.37,2.37,0,0,1-.06.54H22.9A3.17,3.17,0,0,1,25.82,3.3Zm15.92-.75H40.4L35.63,6.72l1.12-4.17H35.67l-1.13,4.2L32,2.55H30.8l1.89,3L28.54,9.76h1.37l3.31-3.37,1,1.57-.49,1.8h1.08l.46-1.7,2-1.66,1.53,3.36h1.16L38.1,5.69Zm8.14,0H44.69l-.35,1.28a12.43,12.43,0,0,1-2.34,5h-.82l-.75,2.83h.91L42,9.76h6l-.52,1.91h.9l.92-2.83H48.18ZM47.09,8.84H43.17a12.14,12.14,0,0,0,2-4.27l.3-1.1h3.07Zm7.1-.28-1-6H52.06l1.32,7.19c-.73,1-1.28,1.34-1.9,1.34a2,2,0,0,1-1.1-.36l-.59.81a2.66,2.66,0,0,0,1.58.5c1.08,0,2-.53,3-2l5-7.45H58.08ZM70,5.62H65.83l.84-3.07H65.58L63.64,9.76h1.08l.87-3.22h4.15l-.87,3.22H70l2-7.21H70.82ZM77.1,2.44a6.47,6.47,0,0,0-2.41.45l.2.9a5.66,5.66,0,0,1,2-.37c1.3,0,1.94.53,1.94,1.45a3.61,3.61,0,0,1-.08.65l-.06.18a9.65,9.65,0,0,0-2.56-.39c-1.86,0-3.22,1-3.22,2.61a2.06,2.06,0,0,0,2.28,2A3.47,3.47,0,0,0,78,8.63l-.3,1.13h1.07l1.09-4.09a4.45,4.45,0,0,0,.14-1C80,3.29,78.93,2.44,77.1,2.44Zm1.32,4.49a3,3,0,0,1-2.83,2.13c-.94,0-1.53-.5-1.53-1.27,0-1,.89-1.68,2.16-1.68a9.05,9.05,0,0,1,2.34.32Zm7.33-.56L84.09,2.55h-.94L81.21,9.76h1.07l1.48-5.51,1.63,3.67,3.66-3.65L87.56,9.76h1.08l2-7.21H89.48ZM93,8.21,94.5,2.55H93.43L91.5,9.76h1l5.84-5.69L96.82,9.76h1.07l2-7.21h-1Zm18.77-5.66L109,5.3,107.6,2.55h-1.19L108.23,6l-3.89,3.74h1.36l3-2.93,1.44,2.93h1.19l-1.89-3.64,3.69-3.57Zm3.08,5.66,1.53-5.66h-1.07l-1.93,7.21h1l5.83-5.69-1.55,5.69h1.07l2-7.21h-1Zm12.35-1.84-1.66-3.82h-.94l-1.94,7.21h1.07l1.48-5.51,1.63,3.67,3.66-3.65L129,9.76h1.08L132,2.55H130.9Zm7.22,1.84,1.53-5.66h-1.07l-1.93,7.21h1l5.83-5.69-1.55,5.69h1.07l1.95-7.21h-1Zm8.74-3.07A1.78,1.78,0,0,0,144.57,7l-2.83,2.8h1.39l2.63-2.65h1.8l-.7,2.65h1.08l1.93-7.21h-3.24C144.5,2.55,143.13,3.53,143.13,5.14Zm5.41-1.65-.74,2.74h-2.08c-1,0-1.54-.36-1.54-1.1,0-1,.88-1.64,2.47-1.64Zm7.29-.35-.88.43L156.09,6l-2.62,2.6.69.59,3.11-3,0-.11Zm-1.64,3-1.47-3-.89.43L153,6l-2.62,2.6.7.59,3.1-3Z" fill="#666" fill-rule="evenodd"/></svg>