<svg id="7aef78d3-0a48-44b2-8d1d-28c9efa94ffe" data-name="Слой 1" xmlns="http://www.w3.org/2000/svg" width="18" height="18" viewBox="0 0 18 18"><title>phone</title><path d="M16.3,1.07,15.24,0,10.89,4.34,12,5.41a.62.62,0,0,1,0,.89L6.3,12a.77.77,0,0,1-.89,0L4.34,10.89,0,15.23,1.07,16.3a5.78,5.78,0,0,0,8.19,0l7-7a5.79,5.79,0,0,0,0-8.19ZM14.92,7.88l-7,7a3.93,3.93,0,0,1-5.1.3l1.59-1.6a2.7,2.7,0,0,0,3.31-.28l5.66-5.66a2.58,2.58,0,0,0,.29-3.31l1.59-1.59A3.86,3.86,0,0,1,16,5.16,3.8,3.8,0,0,1,14.92,7.88Z" transform="translate(0)" fill="#1680db" fill-rule="evenodd"/></svg>