<svg id="18fe46c5-487f-4caf-aa1d-a4071cc23a45" data-name="Слой 1" xmlns="http://www.w3.org/2000/svg" width="192" height="104" viewBox="0 0 192 104"><title>signature</title><path d="M76.66,55.32A15.41,15.41,0,0,0,75.16,62a2.6,2.6,0,0,1-.77,2.09c.07-.65.13-1.1.17-1.56s0-.93-.71-.86c-.49,1.36-.79,2.83-2.14,3.67-.55-1.93-.55-1.93-1.12-2-.22,1.11-.45,2.23-.68,3.35-.28-.63-.35-1.22-.6-1.73s-.69-.61-1.13-.11-.79,1-1.26,1.64c0-1.23-.06-2.33-1.11-3-.09-.07-.11-.27-.12-.42-.06-.71-.09-1.43-.17-2.14a11.1,11.1,0,0,0-2.92-6.65.76.76,0,0,1-.18-.93c1-2.8,2-5.59,2.89-8.43a49.91,49.91,0,0,0,2.17-11.75,34.32,34.32,0,0,0-.4-8.34A20.06,20.06,0,0,0,62.63,15,16.82,16.82,0,0,0,50.16,9.33a25,25,0,0,0-9,1.45C34.44,13,28.77,16.92,23.64,21.69a75.12,75.12,0,0,0-10.5,12.15,80.49,80.49,0,0,0-10,19.29,47.09,47.09,0,0,0-3,14.13c0,.42-.07.85-.11,1.27V69c.05.4.12.8.14,1.2A17.55,17.55,0,0,0,1.5,76.43a5.58,5.58,0,0,0,4.27,3.63,10.1,10.1,0,0,0,4.8-.52A49.6,49.6,0,0,0,20,74.86l2.91-1.69a4.5,4.5,0,0,1-.48,1.49,25.81,25.81,0,0,0-2.87,10.81,14,14,0,0,0,.79,5.64,6,6,0,0,0,5.67,4,13,13,0,0,0,6.33-1.85c1.9-1.09,3.72-2.34,5.61-3.55v.92c0,4,0,8,0,11.94a5.5,5.5,0,0,0,.45,1.45h.15c.6-.25.3-.76.31-1.17,0-4.34.08-8.67.18-13a3.36,3.36,0,0,1,.61-1.9c1.93-2.32,4-4.49,5.93-6.83,2.26-2.78,4.51-5.59,6.55-8.55,3.11-4.51,5.46-9.48,7.94-14.35.62-1.21,1.23-2.42,1.87-3.68a11.06,11.06,0,0,1,.78.86A12.05,12.05,0,0,1,64.89,63a1,1,0,0,1-.44.62,9.36,9.36,0,0,0-3.3,3.94,9.11,9.11,0,0,0-1,5.47c.11.6.16,1.33.87,1.46s1.21-.46,1.6-1a15.16,15.16,0,0,0,2.63-6.43c.12-.76.28-1.52.43-2.28a.66.66,0,0,1,.11.54c-.31,1.52-.64,3-.91,4.55,0,.23.18.51.28.77.23-.13.56-.19.68-.39.65-1.07,1.23-2.17,1.86-3.25.26-.43.6-.81.9-1.21a.76.76,0,0,1,.15.49c0,.63-.1,1.27-.07,1.91a.66.66,0,0,0,.84.65,1.07,1.07,0,0,0,.65-.55c.36-.8.65-1.63,1-2.5,1.47.82,1.74-.62,2.36-1.19a3.47,3.47,0,0,0,1,.48A7.09,7.09,0,0,0,75.85,65a11.78,11.78,0,0,1,.52-2.15,18.59,18.59,0,0,0,1.38-6.23C77.8,55.68,77.61,55.45,76.66,55.32ZM38.88,70.7q-.29,5.91-.58,11.83c-.07,1.4-.14,2.81-.18,4.22A3,3,0,0,1,37,89.36c-2.51,2-5.05,3.87-8.14,4.81-1.94.59-3.85.7-5.6-.55a6.43,6.43,0,0,1-2.42-4.27C20.05,85.4,21,81.64,22.28,78a35.8,35.8,0,0,1,2.36-5.11,8.56,8.56,0,0,1,1.89-1.79L26,70.52A50.1,50.1,0,0,1,39.57,56.45a2.58,2.58,0,0,1,.07.51c-.13,2.27-.29,4.55-.41,6.82S39,68.4,38.88,70.7ZM60.55,55.16A123.32,123.32,0,0,1,49.92,74.22a94.86,94.86,0,0,1-10,12.2c-.16.17-.34.31-.51.46l-.19,0,.51-11.3c.11-2.23.21-4.46.35-6.69.17-2.78.39-5.57.59-8.35.1-1.51.2-3,.34-4.52a1,1,0,0,1,.4-.7,29.5,29.5,0,0,1,10.11-3.72,12.46,12.46,0,0,1,8.18,1.19C61.25,53.61,61.25,53.6,60.55,55.16Zm1-2.2c-1.4-.61-2.7-1.29-4.08-1.74A15.48,15.48,0,0,0,50,51a27.67,27.67,0,0,0-8.14,3l-.53.24c0-1.49,0-3,0-4.48,0-1.25.19-2.5.26-3.76.17-3,.29-6,.48-9.05q.33-5.25.76-10.5c.26-3,.57-6,.91-8.92.22-2,.52-4,.79-6.07-.51,0-.68.44-.79.85-.34,1.35-.7,2.7-.91,4.07-.36,2.37-.65,4.75-.9,7.14-.21,2.06-.34,4.12-.5,6.19-.2,2.58-.4,5.15-.58,7.73-.13,1.84-.22,3.68-.34,5.52-.19,3-.39,5.93-.58,8.9-.06,1-.09,1.95-.2,2.91a1.09,1.09,0,0,1-.45.75,39.36,39.36,0,0,0-8.8,7.42,66.16,66.16,0,0,0-6.08,7.76,10.12,10.12,0,0,1-3,2.39,62.11,62.11,0,0,1-11,5.73,7.52,7.52,0,0,1-4.6.58,5.28,5.28,0,0,1-3.81-4,20.16,20.16,0,0,1-.81-4.49C.8,63.26,2.76,56.09,5.68,49.12A74.55,74.55,0,0,1,15.77,32a92.8,92.8,0,0,1,7.58-8.52A49.84,49.84,0,0,1,40.56,11.88a23.71,23.71,0,0,1,10.17-1.76c7,.51,11.94,4,14.47,10.68a26.1,26.1,0,0,1,1.57,9.06c.09,6.5-1.46,12.67-3.61,18.72C62.62,50.08,62,51.56,61.5,53ZM61,73.86c-.74-2.27,1-6.69,3.71-9.24C65.47,66.34,62.91,72.7,61,73.86ZM174.77,22c-.49.19-1,.37-1.49.54a49.34,49.34,0,0,1-6.55,2.1,6.41,6.41,0,0,0-3.94,2.29,42.19,42.19,0,0,1-6.59,6.5,28,28,0,0,1-6.06,3.44c.13-.94.23-1.77.36-2.59a31.11,31.11,0,0,1,.77-4.65c2.14-6.65,4.29-13.3,4.82-20.33a13.49,13.49,0,0,0-.57-5.75c-.18-.49-.42-1.16-1.07-1-.34.11-.52.69-.77,1.07a1,1,0,0,0-.12.36c-.72,4.85-1.47,9.71-2.14,14.57-.39,2.83-.62,5.68-.95,8.52a8,8,0,0,1-.48,2.3,36.94,36.94,0,0,1-2,3.86,7.39,7.39,0,0,1-3.49,3.38,3.25,3.25,0,0,0,0-1,1.16,1.16,0,0,0-.63-.62c-.11,0-.48.29-.55.5a2.42,2.42,0,0,0,0,1c.18,1.15-.17,2-1.33,2.15-.16-.82.95-1.85-.58-2.58a19.39,19.39,0,0,0-.44,2.08,2.88,2.88,0,0,1-1.38,2.34c-.38.22-1,.48-1.27.32s-.39-.81-.47-1.27c-.12-.63-.15-1.27-.22-1.91l-.29,0c-.77,1.28-.64,3-1.84,4.14-.39-1.1.69-2.49-.8-3.37-.41,1-.78,1.91-1.16,2.86-1.25-1.54-2-1.87-3.21-1.37a6.74,6.74,0,0,0-2.87,2.08c-1.26,1.6-2.54,3.17-3.9,4.86a9.66,9.66,0,0,0-3.79-4.61c-.19-.13-.22-.54-.25-.83s.08-.55.08-.83a88.07,88.07,0,0,0-.92-15.4,83.29,83.29,0,0,0-2-9.38c-1.39-4.8-3.55-9.23-7.39-12.62a11.76,11.76,0,0,0-6.44-3A12.92,12.92,0,0,0,92.27,3.75a36.63,36.63,0,0,0-7.7,10.4c-3.63,7-5.94,14.33-5.27,22.37A14.55,14.55,0,0,0,81.87,44,21.6,21.6,0,0,0,84,46.26l.16-.16c-.35-.39-.73-.77-1.06-1.18a15,15,0,0,1-3-8.42,31,31,0,0,1,.63-9,47.54,47.54,0,0,1,7-16.53A26.69,26.69,0,0,1,95.9,2.7c3.59-2.16,7.24-2.56,10.95-.31a16.53,16.53,0,0,1,5.83,6.55c3.33,6.17,4.58,12.93,5.33,19.81.24,2.18.33,4.39.4,6.59s0,4.3,0,6.38l-.31.12h-.61a11.84,11.84,0,0,0-6.38,1.67A37,37,0,0,0,99.44,54.14a87.74,87.74,0,0,0-6,9A58,58,0,0,0,85.7,84.84a24.08,24.08,0,0,0,.49,9.49,8.15,8.15,0,0,0,2.68,4.54c2,1.56,4.16,1.38,6.3.31a19.51,19.51,0,0,0,7-6.5A87.47,87.47,0,0,0,111,76.23a101.93,101.93,0,0,0,5.93-18.6c.76-3.42,1.27-6.89,1.88-10.35.24-1.41.43-2.83.64-4.26A4.8,4.8,0,0,1,122,49.74a14.4,14.4,0,0,0-2.11,7.17c0,.69,0,1.52.83,1.71s1.17-.58,1.46-1.19a17.72,17.72,0,0,0,1.71-8.36,2.46,2.46,0,0,1,.38-1.35,52,52,0,0,1,3.07-4.28,8.58,8.58,0,0,1,4-2.83.86.86,0,0,1,1.16.54,2.9,2.9,0,0,1,.25.87c.07.71.08,1.43.18,2.14a2.83,2.83,0,0,0,.42.78c.16-.24.33-.48.48-.72,0,0,0-.1,0-.15l.6-3.17a10.57,10.57,0,0,1,.37,1.13c.09.24.3.58.48.59a1,1,0,0,0,.76-.35c.39-.5.71-1.05,1.16-1.75a3.73,3.73,0,0,0,.46.65,1.49,1.49,0,0,0,2.23,0c.5-.43,1-.89,1.48-1.33.17-.14.39-.35.56-.32,1.17.18,1.67-.61,2.17-1.44a.85.85,0,0,1,.45-.41A5.72,5.72,0,0,0,148,35.47c.51-.65,1-1.32,1.58-2.13-.25,1.36-.47,2.55-.69,3.76h-1.68a1.8,1.8,0,0,0,0,.28,19,19,0,0,1,.34,6.63c-.13,1.48-.15,3-.17,4.45,0,.54.06,1.13.84,1.26.19-1.42.35-2.78.55-4.13.34-2.34.69-4.68,1.07-7a1,1,0,0,1,.54-.57c1.14-.53,2.34-1,3.47-1.54,3.76-1.94,6.59-5,9.4-8.09a5.59,5.59,0,0,1,3.4-2.21,16.13,16.13,0,0,0,3.79-1.28c1.81-.74,3.6-1.56,5.39-2.34C175.64,21.84,175.27,21.77,174.77,22ZM154.46,4.22h.39a23.24,23.24,0,0,1,.37,2.6,44.92,44.92,0,0,1-1.76,12.52c-.38,1.46-.85,2.91-1.27,4.36l-.27-.06Q153.2,13.94,154.46,4.22ZM116.17,55.37a121.13,121.13,0,0,1-7.71,24.25,69.45,69.45,0,0,1-5.53,10.44c-2,3.06-4.19,6-7.39,8a9.62,9.62,0,0,1-3.2,1.27,3.71,3.71,0,0,1-3.68-1.72,11.46,11.46,0,0,1-2-5.83q-.12-1.23-.15-2.46a39.82,39.82,0,0,1,2.25-13.5A66.54,66.54,0,0,1,99.35,56a58.39,58.39,0,0,1,7.3-8.24,20.44,20.44,0,0,1,8.34-5,6.6,6.6,0,0,1,3.46,0C117.68,47,117,51.19,116.17,55.37Zm4.64,2c-.27-2.51.77-4.61,1.85-6.75C122.9,52.2,121.9,56.28,120.81,57.4ZM191.13,1.13c-.38.21-.78.37-1.16.58Q180.34,7,170.72,12.33c-1.07.6-2.09,1.31-3.13,2,.28.69.6.85,1.12.4a4,4,0,0,1,.69-.46l18-10.12L192,1.56C191.84,1,191.58.88,191.13,1.13Z" fill="#333" fill-rule="evenodd"/></svg>