<svg xmlns="http://www.w3.org/2000/svg" width="18" height="18" viewBox="0 0 18 18"><g><g><path fill="#1680db" d="M-.004 17.97l1.464-4.326A8.761 8.761 0 0 1 .047 8.853c0-4.91 4.026-8.905 8.975-8.905h.004c4.95 0 8.976 3.995 8.976 8.905 0 4.91-4.026 8.904-8.976 8.904a8.983 8.983 0 0 1-4.525-1.215zm4.792-3.597l.399.261a6.966 6.966 0 0 0 3.84 1.144c3.848 0 6.98-3.107 6.98-6.925 0-3.819-3.132-6.926-6.98-6.926h-.005c-3.85 0-6.98 3.107-6.98 6.926 0 1.47.459 2.873 1.328 4.057l.303.413-.532 1.572zm8.881-2.258c-.192.539-.956.986-1.566 1.117-.417.088-.961.158-2.795-.596-2.345-.963-3.855-3.327-3.973-3.48-.112-.154-.947-1.252-.947-2.388s.581-1.689.816-1.926c.192-.195.51-.284.816-.284.098 0 .187.005.267.009.234.01.352.024.507.39.192.46.661 1.597.717 1.713.057.117.114.275.034.429-.075.158-.14.228-.259.363-.117.134-.229.237-.347.382-.107.125-.23.26-.093.492.135.228.604.987 1.294 1.596.891.787 1.613 1.038 1.872 1.145.192.08.421.06.562-.088.179-.191.4-.508.624-.82.16-.223.36-.25.572-.171.216.074 1.356.633 1.59.749.235.116.39.172.446.27.056.098.056.558-.137 1.098z"/></g></g></svg>