<svg data-name="Слой 1" xmlns="http://www.w3.org/2000/svg" width="24" height="24"><path d="M21.19 0H2.81A2.81 2.81 0 000 2.81v18.38A2.81 2.81 0 002.81 24h18.38A2.81 2.81 0 0024 21.19V2.81A2.81 2.81 0 0021.19 0zm.93 21.19a.94.94 0 01-.93.94h-5.53v-6.85h3l.35-2.9h-3.35V9.23a1.37 1.37 0 011.4-1.4h2.11V5.11a20.14 20.14 0 00-2.11-.19 4.3 4.3 0 00-3 1.27 4.23 4.23 0 00-1.31 3.05v3.14H9.7v2.9h3.05v6.85H2.81a.94.94 0 01-.93-.94V2.81a.94.94 0 01.93-.94h18.38a.94.94 0 01.93.94z" fill="#666" fill-rule="evenodd"/></svg>