<svg data-name="Слой 1" xmlns="http://www.w3.org/2000/svg" width="96" height="110"><defs><linearGradient id="a" y1="55" x2="96" y2="55" gradientUnits="userSpaceOnUse"><stop offset="0" stop-color="#51b9dc"/><stop offset="1" stop-color="#4f6ff3"/></linearGradient></defs><path fill-rule="evenodd" fill="url(#a)" d="M48 0L0 27.5v55L48 110l48-27.5v-55L48 0z"/><path d="M39.5 53.5a6 6 0 10-6-6 6 6 0 006 6zm0-8a2 2 0 11-2 2 2 2 0 012-2zm16 12a6 6 0 106 6 6 6 0 00-6-6zm0 8a2 2 0 112-2 2 2 0 01-2 2zm2-22.83L34.67 65.5l2.83 2.83L60.33 45.5zM48 28a27 27 0 1027 27 27 27 0 00-27-27zm0 50a23 23 0 1123-23 23 23 0 01-23 23z" fill="#fff" fill-rule="evenodd"/></svg>