<svg data-name="Слой 1" xmlns="http://www.w3.org/2000/svg" width="96" height="110"><defs><linearGradient id="a" y1="55" x2="96" y2="55" gradientUnits="userSpaceOnUse"><stop offset="0" stop-color="#51b9dc"/><stop offset="1" stop-color="#4f6ff3"/></linearGradient></defs><path fill-rule="evenodd" fill="url(#a)" d="M48 0L0 27.5v55L48 110l48-27.5v-55L48 0z"/><path d="M23 29v26c0 14.3 10.1 26.59 24.55 29.9l.45.1.45-.1C62.9 81.59 73 69.3 73 55V29zm46 26c0 12.26-8.61 22.85-21 25.89C35.61 77.86 27 67.27 27 55V33h42zm-9 7.1V47.85l-12-7.19-12 7.19V62.1l12 7.2zm-4-2.26l-6 3.6v-7.33l6-3.6zm-8-14.52L54.11 49 48 52.65 41.89 49zm-2 18.12l-6-3.6v-7.33l6 3.6z" fill="#fff" fill-rule="evenodd"/></svg>