<svg data-name="Слой 1" xmlns="http://www.w3.org/2000/svg" width="96" height="110"><defs><linearGradient id="a" y1="55" x2="96" y2="55" gradientUnits="userSpaceOnUse"><stop offset="0" stop-color="#51b9dc"/><stop offset="1" stop-color="#4f6ff3"/></linearGradient></defs><path fill-rule="evenodd" fill="url(#a)" d="M48 0L0 27.5v55L48 110l48-27.5v-55L48 0z"/><path d="M62 30v-5h-4v5H38v-5h-4v5H22v52h52V30zm8 48H26V34h8v5h4v-5h20v5h4v-5h8zM52 51v10h-4v4h4v2h-4v4h4v3h4v-3h4v-4h-4v-2h3a7 7 0 000-14zm10 7a3 3 0 01-3 3h-3v-6h3a3 3 0 013 3z" fill="#fff" fill-rule="evenodd"/></svg>