<svg data-name="Слой 1" xmlns="http://www.w3.org/2000/svg" width="96" height="110"><defs><linearGradient id="a" y1="55" x2="96" y2="55" gradientUnits="userSpaceOnUse"><stop offset="0" stop-color="#51b9dc"/><stop offset="1" stop-color="#4f6ff3"/></linearGradient></defs><path fill-rule="evenodd" fill="url(#a)" d="M48 0L0 27.5v55L48 110l48-27.5v-55L48 0z"/><path d="M55.58 43.56l7.57-7.44-10.46-1.54L48 25l-4.69 9.58-10.46 1.54 7.57 7.44-1.79 10.53 9.37-5 9.37 5zm-3.47 3.23L48 44.61l-4.11 2.18.79-4.61-3.33-3.28 4.6-.68L48 34l2 4.19 4.6.68-3.33 3.28zm-16.27 12.7l-4.69-9.58-4.69 9.58L16 61l7.57 7.44L21.78 79l9.37-5 9.37 5-1.79-10.53L46.3 61zm-.58 12.21l-4.11-2.18L27 71.7l.79-4.61-3.29-3.28 4.6-.68 2-4.19 2.05 4.19 4.6.68-3.33 3.28zM80 61l-10.46-1.51-4.69-9.58-4.69 9.58L49.7 61l7.57 7.44L55.48 79l9.37-5 9.37 5-1.79-10.53zM69 71.7l-4.11-2.18-4.15 2.18.79-4.61-3.34-3.28 4.61-.68 2-4.19 2.05 4.19 4.6.68-3.33 3.28z" fill="#fff" fill-rule="evenodd"/></svg>