<svg data-name="Слой 1" xmlns="http://www.w3.org/2000/svg" width="96" height="110"><defs><linearGradient id="a" y1="55" x2="96" y2="55" gradientUnits="userSpaceOnUse"><stop offset="0" stop-color="#51b9dc"/><stop offset="1" stop-color="#4f6ff3"/></linearGradient></defs><path fill-rule="evenodd" fill="url(#a)" d="M48 0L0 27.5v55L48 110l48-27.5v-55L48 0z"/><path d="M32 40H18v4h14zm-2 10H16v4h14zm-2 10H14v4h14zm44-20h-5V30H23v6h4v-2h36v36H44.74a8 8 0 00-15.48 0H27v-2h-4v6h6.26a8 8 0 0015.48 0h18.52a8 8 0 0015.48 0H83V54.32zM37 76a4 4 0 114-4 4 4 0 01-4 4zm34 0a4 4 0 114-4 4 4 0 01-4 4zm8-6h-.26A8 8 0 0067 65.08V44h3l9 11.68z" fill="#fff" fill-rule="evenodd"/></svg>