<svg data-name="Слой 1" xmlns="http://www.w3.org/2000/svg" width="208" height="137"><defs><linearGradient id="a" x1="104" y1="137" x2="104" gradientUnits="userSpaceOnUse"><stop offset="0" stop-color="#0044b5"/><stop offset="1" stop-color="#2461c5"/></linearGradient></defs><path fill="#0044b5" fill-rule="evenodd" d="M0 0v137l208-20V0H0z"/><path fill="#0044b5" fill-rule="evenodd" d="M0 0v137l208-20V0H0z"/><path d="M34 133.73L0 137V0h34zM174 0v120.27l34-3.27V0z" fill-rule="evenodd" fill="url(#a)"/><path d="M67.08 32.64h1V19.76h-1zm6.36-13a3 3 0 00-3.28 3.26v6.58a3.28 3.28 0 006.56 0V28h-1v1.53a2.31 2.31 0 11-4.61 0v-6.7a2.31 2.31 0 114.61 0V24h1v-1.09a3 3 0 00-3.28-3.26zm5.37 13h1V19.76h-1zm4.08-9.84a2.26 2.26 0 114.52 0v.34h1v-.28a3.24 3.24 0 00-6.47 0c0 3.59 5.49 3.64 5.49 6.73a2.3 2.3 0 11-4.6 0v-.71h-1v.66a3.28 3.28 0 006.56 0c0-3.54-5.5-3.62-5.5-6.74zm8.69-2.27h3.11v12.11h1V20.53h3.08v-.77h-7.19zm12.32-.88a3 3 0 00-3.32 3.26v6.58a3.35 3.35 0 006.69 0v-6.58a3 3 0 00-3.37-3.26zm2.37 9.9A2.16 2.16 0 01103.9 32a2.13 2.13 0 01-2.32-2.42v-6.7a2.14 2.14 0 012.32-2.43 2.16 2.16 0 012.37 2.43zm6.1-9.79h-3.15v12.88h1v-5.3h1.89c2.41 0 3.52-1 3.52-3.05v-1.4c0-1.89-.91-3.13-3.26-3.13zm2.26 4.58c0 1.56-.76 2.23-2.52 2.23h-1.89v-6h2.15c1.7 0 2.26.9 2.26 2.3zm4.37-2.79v.73a3.41 3.41 0 002.36-1.08v11.44h1v-12.9h-.78a2.7 2.7 0 01-2.58 1.81zm9.16-1.9a3 3 0 00-3.34 3.26v6.58a3.35 3.35 0 006.69 0v-6.58a3 3 0 00-3.37-3.26zm2.35 9.88a2.35 2.35 0 11-4.69 0v-6.68a2.35 2.35 0 114.69 0zm6.23-9.88a3 3 0 00-3.34 3.26v6.58a3.35 3.35 0 006.69 0v-6.58a3 3 0 00-3.37-3.26zm2.35 9.88a2.35 2.35 0 11-4.69 0v-6.68a2.35 2.35 0 114.69 0z" fill="#fff" fill-rule="evenodd"/><path d="M151.81 76.16a19 19 0 013.2 1 5.85 5.85 0 013.28 5.38c.05 4.06 0 8.12 0 12.17a6.39 6.39 0 01-4.55 6l-1.33.41H150a20 20 0 01-2.05-.74 6.21 6.21 0 01-3.84-6V82.82a6.48 6.48 0 015.83-6.57 6 6 0 00.67-.17zm2.36 12.53v-6.14a2.79 2.79 0 00-3-3 2.82 2.82 0 00-2.94 3v12.09a2.83 2.83 0 001.46 2.68 3 3 0 004.47-2.54q0-3.01.01-6.09zm-32.61 12.47l1.33-.42a6.31 6.31 0 004.52-5.74c.07-5.84 0-11.69 0-17.53 0-.68-.28-1-1-1h-1.82c-1.31 0-1.36 0-1.36 1.36v16.13a9.47 9.47 0 01-.11 1.5 2.53 2.53 0 01-1.45 1.93 3 3 0 01-4.4-2.79c.07-5.64 0-11.29 0-16.93 0-.85-.27-1.26-1.16-1.21a17.38 17.38 0 01-1.91 0c-.77 0-1.09.27-1.09 1.06v17.33a5.72 5.72 0 002.86 5 19.36 19.36 0 003 1.24zm-71.37 0a1.54 1.54 0 01.37-.14c4.38-.6 5.78-4.48 5.15-8-.44-2.49-2.1-4-4.2-5.06-1.28-.67-2.58-1.29-3.81-2a3.76 3.76 0 01-2-3.89c.18-1.54.79-2.26 2.09-2.41a2.48 2.48 0 012.88 1.93c.2.61.24 1.46.67 1.75s1.29.12 2 .13h.81c.64 0 .92-.29.87-.93-.16-2.14-.84-4.07-2.77-5.19A17.59 17.59 0 0049 76.16h-1.43c-.32.07-.64.14-1 .19a5.27 5.27 0 00-4.38 3 7.21 7.21 0 001.62 8.57 21.55 21.55 0 002.74 1.85c1.2.74 2.46 1.37 3.63 2.15a3.46 3.46 0 011.43 3.63 2.47 2.47 0 01-2.45 2.23c-1.69.11-2.9-.59-3.29-1.88-.53-1.9-.53-1.9-2.55-1.9h-.8c-.72 0-1 .32-1 1.07a6.13 6.13 0 003.57 5.23 19.56 19.56 0 002.65.87zm136.7 0l1.32-.39a5.16 5.16 0 003.54-3c1.31-3.23.83-7.16-2.74-9.22-1.42-.81-2.92-1.5-4.34-2.32a4.11 4.11 0 01-2.44-3.75c0-1.7.75-2.65 2.13-2.82 1.57-.19 2.49.5 2.93 2.2a2.87 2.87 0 01.16.69c0 .77.44 1 1.11.93s1.34 0 2 0 1.06-.32 1-1.1a6.14 6.14 0 00-5.63-6 2.9 2.9 0 01-.48-.14h-1.21c-.36.06-.72.13-1.08.18a5.26 5.26 0 00-4.25 2.7 7.26 7.26 0 00.25 7.47A10 10 0 00183 89.7c1.31.73 2.63 1.48 3.88 2.3a3.27 3.27 0 011.37 3 2.56 2.56 0 01-2.25 2.73c-1.85.23-3.11-.48-3.57-2C181.9 94 181.9 94 180 94h-1.11c-.62 0-.89.38-.82 1a6.19 6.19 0 003.81 5.38c.76.32 1.57.52 2.36.77zM107.3 88.27a6.11 6.11 0 013 3.85c1.16 4.58-2 8.63-6.84 8.78-2 .06-4 0-6 0-.8 0-1.13-.33-1.13-1.15V77.57c0-.56.12-1.07.78-1.06a70 70 0 017.53.25 5.66 5.66 0 015 4.48c.67 2.68.18 5.07-2.22 6.79a1 1 0 00-.12.24zm-6.69 9.27c1.86-.14 3.85.59 5.07-1.44a4 4 0 000-4.46c-1.25-2-3.22-1.25-5-1.37zm0-10.65c1.84 0 3.72.45 4.72-1.53A3.92 3.92 0 00105 81c-1.16-1.54-2.84-1.1-4.44-1.11zm-21.48 6.26H75.8V99.86c0 .73-.29 1.06-1 1-3.64 0-3.12.42-3.13-3V78.11c0-1.7 0-1.7 1.75-1.7h5.14a6.65 6.65 0 017 7v3.33a5.88 5.88 0 01-2.27 4.63 1 1 0 00-.37 1.34c.78 2.25 1.49 4.52 2.22 6.78.3.95.11 1.24-.85 1.29-2.65.15-2.65.15-3.45-2.4-.28-.89-.55-1.79-.82-2.69s-.6-1.59-.89-2.54zm-3.28-3.29h2.49a2.77 2.77 0 002.85-2.35 27.74 27.74 0 000-5.39 2.75 2.75 0 00-2.6-2.28c-.89-.07-1.79 0-2.73 0zm-8.75-10c2.17 0 2 .18 2.07-2.08 0-.91-.3-1.25-1.23-1.24h-9.06c-2.51 0-2.23-.32-2.26 2.37 0 .7.3 1 1 .93h3.24V98.3c0 2.91-.47 2.63 2.71 2.64 1.3 0 1.39-.09 1.39-1.36V79.81c.8 0 1.47-.01 2.14 0zM134.23 81v17.22c0 3-.49 2.68 2.66 2.69 1.34 0 1.44-.09 1.44-1.42V79.81h2.21c2 0 2 0 2-2 0-1-.33-1.29-1.29-1.28h-9.06c-2.43 0-2.16-.25-2.21 2.23 0 .86.34 1.12 1.14 1.08h3.09zM88.51 98.31c0 2.82-.5 2.6 2.65 2.6 1.39 0 1.48-.09 1.48-1.49V78c0-.21.08-.47 0-.6-.24-.32-.52-.77-.86-.84a16.59 16.59 0 00-2 0c-1-.08-1.29.31-1.28 1.28v10.87c0 3.16-.02 6.38.01 9.6zM166 93.12v6.48c0 1-.3 1.34-1.27 1.32-3.44 0-2.86.31-2.87-2.79V77.88c0-1.31.06-1.37 1.35-1.37h5.34c3.9-.07 7.37 2.64 7.17 7.18a21.93 21.93 0 01-.33 4.68 8.69 8.69 0 01-2 3.14 1.19 1.19 0 00-.31 1.38q1.11 3.33 2.18 6.69c.34 1.07.13 1.34-1 1.34-3 0-2.38.39-3.27-2.36-.51-1.6-1-3.21-1.5-4.8a1.14 1.14 0 00-.81-.6c-.82-.09-1.68-.04-2.68-.04zm0-3.26h2.39a3 3 0 003.13-2.86 36.62 36.62 0 000-4.32 2.9 2.9 0 00-2.46-2.79 19.93 19.93 0 00-3 0zM16.71 88.67V77.8c0-1 .28-1.34 1.27-1.31 1.94.06 3.89 0 5.84 0a6.77 6.77 0 017.06 7.1c-.13 3.35-.15 6.72 0 10.07a6.72 6.72 0 01-6.93 7.22h-6.14c-.83 0-1.11-.35-1.1-1.17.02-3.65 0-7.34 0-11.04zm4.16 8.82c1.19 0 2.26.07 3.33 0A2.55 2.55 0 0026.64 95a5.49 5.49 0 00.05-.7V83.12c0-1.8-.54-2.76-1.9-3a32.79 32.79 0 00-3.91-.3zm17.47-18.22c0-3.16.43-2.73-2.8-2.76-1.25 0-1.29 0-1.29 1.31v20.36c0 3-.57 2.69 2.82 2.74 1 0 1.29-.33 1.28-1.29V88.74c-.01-3.16.01-6.31-.01-9.47zm11.89-36.92a19.24 19.24 0 013.39 1.12 6.06 6.06 0 013.26 5c.07.72-.18 1.09-1 1h-1c-1.82 0-1.82 0-2.31-1.78a2.76 2.76 0 00-2.85-1.91 2.68 2.68 0 00-2.72 2.1 1.54 1.54 0 000 .3c0 4.45-.06 8.89 0 13.34A2.65 2.65 0 0049.73 64a2.76 2.76 0 002.92-2.35c.15-1.15.64-1.58 1.76-1.41a8.13 8.13 0 001.21 0c1.21 0 1.38.21 1.22 1.43a6.81 6.81 0 01-5.41 5.52 7 7 0 01-8.18-4 7.65 7.65 0 01-.45-2.65V49.6c0-4 2.14-6.5 6.16-7.06a2.64 2.64 0 00.48-.14zm77.18 0a2.13 2.13 0 01-.37.14c-4 .58-6.13 3-6.14 7.08v10.84a8.39 8.39 0 00.57 3c1.25 2.91 4.41 4.37 7.87 3.79a6.89 6.89 0 005.66-5.75c.09-.84-.15-1.29-1.07-1.23a12.15 12.15 0 01-1.81 0c-.84-.07-1.2.25-1.3 1.11A2.8 2.8 0 01128 64a2.85 2.85 0 01-3-2.75q-.09-6.37 0-12.75a2.67 2.67 0 012.61-2.68 2.83 2.83 0 013.12 2c.45 1.72.45 1.72 2.24 1.72h.9c1 0 1.23-.23 1.08-1.28a6.16 6.16 0 00-3.28-4.77 21.29 21.29 0 00-3.3-1.1zM166 64.06a5.71 5.71 0 00-1.3-.35h-5.9V62.5 45.64c0-3.4.54-2.88-3-2.94-.82 0-1.14.29-1.14 1.11v22.18c0 .83.35 1.12 1.15 1.11h9.14a3.24 3.24 0 001.05-.4zm-60.72-10.17v10.53c0 3-.33 2.66 2.69 2.67 1.4 0 1.46-.06 1.47-1.48v-20.3c0-3 .29-2.54-2.63-2.62a1.57 1.57 0 00-1.69 1.08c-1 2.31-2.15 4.6-3.23 6.9-.43.91-.88 1.82-1.4 2.88-1.39-3-2.78-5.74-3.92-8.58-.7-1.75-1.64-2.56-3.57-2.3-1.26.18-1.37.13-1.37 1.4v20.2c0 3.2-.39 2.8 2.84 2.82 1.19 0 1.3-.11 1.3-1.34V53.9a2 2 0 01.68.84c.93 2 1.88 3.91 2.78 5.89a1.28 1.28 0 001.37.88 1.19 1.19 0 001.21-.79c1.07-2.3 2.18-4.58 3.27-6.86zM69.13 64.27c0 3.21-.37 2.8 2.84 2.82 1.21 0 1.32-.1 1.32-1.32v-21.7c0-.17.07-.39 0-.5-.26-.31-.54-.75-.87-.82a14.8 14.8 0 00-2-.06c-1-.07-1.31.33-1.3 1.29v10.04h-4.55c-.78 0-1-.27-.94-1v-7.64c0-3.09.35-2.68-2.75-2.7-1.32 0-1.37 0-1.37 1.34v20.19c0 3.28-.49 2.79 2.88 2.86.92 0 1.26-.31 1.25-1.22v-7.44c0-.35 0-.7.07-1.08h5.46c-.04 2.39-.05 4.67-.04 6.94zm81.54 2.82c1.49 0 1.6-.11 1.28-1.53-.95-4.37-1.93-8.74-2.9-13.11-.64-2.87-1.3-5.74-1.92-8.61-.17-.79-.51-1.24-1.42-1.15s-1.74 0-2.61 0c-1.4 0-1.44 0-1.76 1.47q-1 4.69-2.09 9.39l-2.76 12.32c-.2.88 0 1.18.92 1.21h2a1 1 0 001.13-.86c.12-.73.33-1.44.45-2.16.08-.54.33-.72.86-.7h3.82c1.95 0 1.59-.37 2 1.72s.4 2 2.35 2zM141.89 60c.76-3.57 1.52-7.08 2.27-10.59h.21L146.62 60zM86.11 46c2.48 0 2.13.48 2.19-2.26 0-.81-.28-1-1-1h-9c-.88 0-1.19.34-1.19 1.18v22c0 .89.31 1.25 1.24 1.24 2.91 0 5.83-.06 8.74 0 1 0 1.35-.26 1.31-1.29-.09-2.36.27-2.11-2.18-2.12h-4.98v-6.47h3c2.5 0 2.16.36 2.21-2.28 0-.79-.26-1.08-1-1.06h-4.14V46h4.8zm31.24-.6c0-3 .32-2.66-2.68-2.67-1.4 0-1.48.07-1.48 1.47v20.06c0 3.31-.28 2.8 2.84 2.83 1.21 0 1.32-.11 1.32-1.32V54.92c0-3.18.01-6.36 0-9.54z" fill="#fff"/></svg>