<svg data-name="Слой 1" xmlns="http://www.w3.org/2000/svg" width="360" height="237"><defs><linearGradient id="a" x1="180" y1="237" x2="180" gradientUnits="userSpaceOnUse"><stop offset="0" stop-color="#0044b5"/><stop offset="1" stop-color="#2461c5"/></linearGradient></defs><path fill="#0044b5" fill-rule="evenodd" d="M0 0v237l360-34.6V0H0z"/><path fill="#0044b5" fill-rule="evenodd" d="M0 0v237l360-34.6V0H0z"/><path d="M58.85 231.34L0 237V0h58.85zM301.15 0v208.06L360 202.4V0z" fill-rule="evenodd" fill="url(#a)"/><path d="M116.1 56.46h1.73V34.19h-1.73zm11-22.47c-4 0-5.68 2.42-5.68 5.64V51c0 3.21 1.65 5.63 5.68 5.63s5.67-2.42 5.67-5.63v-2.53h-1.65v2.64c0 2.39-1.09 4.17-4 4.17s-4-1.78-4-4.17V39.53c0-2.38 1.09-4.2 4-4.2s4 1.82 4 4.2v1.94h1.65v-1.84c.02-3.22-1.63-5.63-5.65-5.63zm9.28 22.47h1.73V34.19h-1.71zm7.07-17c0-2.36 1.05-4.11 3.91-4.11s3.91 1.78 3.91 4.14V40h1.65v-.48c0-3.21-1.61-5.57-5.6-5.57s-5.6 2.2-5.6 5.54c0 6.21 9.51 6.3 9.51 11.65 0 2.38-1.09 4.1-4 4.1s-4-1.72-4-4.1v-1.2h-1.65v1.14c0 3.21 1.65 5.57 5.68 5.57s5.74-2.36 5.74-5.57c0-6.14-9.53-6.23-9.53-11.64zm15-3.92h5.38v20.92h1.72V35.52H171v-1.33h-12.49zM179.83 34c-4 0-5.75 2.39-5.75 5.64V51c0 3.24 1.76 5.63 5.75 5.63s5.82-2.39 5.82-5.63V39.63c0-3.25-1.76-5.63-5.82-5.63zm4.09 17.12c0 2.42-1.16 4.2-4.09 4.2s-4-1.78-4-4.2V39.53c0-2.42 1.13-4.2 4-4.2s4.09 1.78 4.09 4.2zm10.57-16.92H189v22.26h1.73v-9.17H194c4.17 0 6.09-1.74 6.09-5.28v-2.42c.04-3.24-1.54-5.4-5.6-5.4zm3.91 7.92c0 2.7-1.32 3.85-4.36 3.85h-3.27V35.52h3.72c2.93 0 3.91 1.56 3.91 4zm7.52-4.84v1.27a5.89 5.89 0 004.1-1.87v19.78h1.73V34.15h-1.36a4.66 4.66 0 01-4.47 3.12zM221.79 34c-4 0-5.79 2.36-5.79 5.64V51c0 3.24 1.76 5.63 5.79 5.63s5.79-2.39 5.79-5.63V39.63c0-3.28-1.77-5.63-5.79-5.63zm4.06 17.09c0 2.45-1.17 4.23-4.06 4.23s-4.06-1.78-4.06-4.23V39.53c0-2.42 1.16-4.2 4.06-4.2s4.06 1.78 4.06 4.2zM236.64 34c-4 0-5.79 2.36-5.79 5.64V51c0 3.24 1.77 5.63 5.79 5.63s5.79-2.39 5.79-5.63V39.63c0-3.28-1.77-5.63-5.79-5.63zm4.06 17.09c0 2.45-1.17 4.23-4.06 4.23s-4.06-1.78-4.06-4.23V39.53c0-2.42 1.16-4.2 4.06-4.2s4.06 1.78 4.06 4.2z" fill="#fff" fill-rule="evenodd"/><path d="M262.74 131.76a33 33 0 015.55 1.8 10.13 10.13 0 015.67 9.32c.08 7 .07 14 0 21.05a11 11 0 01-7.89 10.35l-2.29.72h-4.18c-1.19-.42-2.42-.75-3.56-1.28a10.75 10.75 0 01-6.64-10.31q-.08-10 0-20a11.21 11.21 0 0110.09-11.36c.39-.06.77-.2 1.16-.29zm4.09 21.68c0-3.55.06-7.09 0-10.64-.08-3.2-2.12-5.15-5.16-5.12a4.9 4.9 0 00-5.1 5.23c-.05 7 0 14 0 20.92a4.93 4.93 0 002.53 4.64c2.84 1.6 7.75.28 7.74-4.4-.02-3.54-.02-7.07-.01-10.63zM210.4 175l2.29-.72c4.4-1.37 7.78-5.4 7.83-9.88.12-10.11 0-20.22.06-30.33 0-1.17-.49-1.73-1.66-1.72s-2.09 0-3.14 0c-2.27 0-2.36.1-2.36 2.36v27.9a20.67 20.67 0 01-.19 2.6 4.41 4.41 0 01-2.51 3.33 5.17 5.17 0 01-7.62-4.82c.12-9.76 0-19.52.06-29.29 0-1.47-.48-2.18-2-2.09a30.64 30.64 0 01-3.32 0c-1.32-.07-1.89.46-1.88 1.83 0 10 0 20 .05 30a9.89 9.89 0 004.95 8.7 33.84 33.84 0 005.27 2.15zm-123.53 0a3.14 3.14 0 01.64-.25c7.58-1 10-7.74 8.92-13.83-.78-4.31-3.64-6.84-7.28-8.75-2.21-1.16-4.46-2.24-6.59-3.54a6.53 6.53 0 01-3.4-6.73c.32-2.67 1.37-3.91 3.62-4.16 2.52-.29 4.15.82 5 3.34.35 1 .43 2.53 1.16 3s2.24.2 3.4.23h1.39c1.11 0 1.61-.5 1.52-1.6-.28-3.7-1.46-7-4.8-9-1.69-1-3.76-1.35-5.65-2h-2.47c-.56.11-1.11.23-1.68.32-3.33.54-6.17 2-7.58 5.15-2 4.49-2 10.69 2.81 14.83a37.48 37.48 0 004.74 3.2c2.07 1.28 4.25 2.38 6.27 3.72 2.22 1.48 2.84 3.73 2.48 6.27a4.26 4.26 0 01-4.23 3.87c-2.92.18-5-1-5.69-3.25-1-3.28-1-3.28-4.47-3.28h-1.39c-1.24 0-1.81.56-1.67 1.84a10.58 10.58 0 006.16 9.05 36.39 36.39 0 004.6 1.51zm236.59 0l2.29-.68a8.9 8.9 0 006.12-5.25c2.27-5.59 1.44-12.39-4.74-15.95-2.46-1.41-5.05-2.6-7.52-4s-4.27-3.38-4.21-6.5c.06-2.94 1.29-4.59 3.68-4.87 2.72-.33 4.31.86 5.08 3.81a4.2 4.2 0 01.27 1.18c0 1.34.76 1.66 1.92 1.62s2.32 0 3.48 0c1.38.05 1.83-.56 1.75-1.91-.38-5.78-4-9.69-9.74-10.44a6.48 6.48 0 01-.83-.24h-2.09l-1.87.31c-3.13.5-5.92 1.73-7.36 4.66-2.1 4.3-2.25 8.71.44 12.93 1.61 2.53 4 4.1 6.6 5.52 2.27 1.27 4.55 2.55 6.72 4a5.7 5.7 0 012.37 5.16c0 2.66-1.57 4.48-3.92 4.76-3.2.39-5.37-.83-6.17-3.49-.89-3-.89-3-4.16-3h-1.92c-1.08.08-1.53.66-1.41 1.75.49 4.31 2.51 7.55 6.58 9.3 1.31.57 2.73.9 4.1 1.34zm-137.74-22.3a10.52 10.52 0 015.14 6.67c2 7.92-3.42 14.92-11.83 15.18-3.43.1-6.86 0-10.29 0-1.39 0-2-.57-2-2v-38.36c0-1 .2-1.86 1.34-1.84a123.06 123.06 0 0113 .43 9.76 9.76 0 018.66 7.75c1.18 4.63.32 8.77-3.83 11.75-.01.1-.05.22-.19.42zm-11.59 16c3.21-.24 6.66 1 8.77-2.48a7 7 0 000-7.72c-2.16-3.44-5.58-2.17-8.75-2.36zm0-18.41c3.19.05 6.45.77 8.18-2.66a6.8 6.8 0 00-.49-7.56c-2-2.65-4.92-1.9-7.69-1.91zM137 161.14h-5.76v11.62c0 1.26-.49 1.82-1.73 1.81-6.31 0-5.41.72-5.43-5.11v-34.15c0-3 0-3 3-3h8.89c6.33 0 12.41 4.45 12.09 12.17-.08 1.92 0 3.84 0 5.75a10.15 10.15 0 01-3.93 8 1.75 1.75 0 00-.64 2.33c1.35 3.89 2.57 7.82 3.84 11.73.53 1.64.2 2.13-1.47 2.23-4.59.26-4.59.26-6-4.15-.49-1.55-1-3.1-1.43-4.65s-.96-2.94-1.43-4.58zm-5.67-5.7h4.31c2.47-.08 4.68-1.62 4.93-4.08a47.48 47.48 0 000-9.31 4.76 4.76 0 00-4.5-4c-1.54-.12-3.1 0-4.73 0zm-15.15-17.38c3.75 0 3.54.32 3.59-3.59 0-1.58-.53-2.16-2.12-2.14-5.23.06-10.46 0-15.69 0-4.35 0-3.86-.55-3.91 4.09 0 1.22.52 1.65 1.69 1.62h5.61v31.93c0 5-.83 4.56 4.68 4.58 2.25 0 2.41-.16 2.41-2.36v-34.13zm116.19 2.07v29.79c0 5.11-.85 4.63 4.6 4.65 2.32 0 2.48-.17 2.48-2.46V138.06h3.84c3.49 0 3.42 0 3.49-3.52 0-1.68-.57-2.24-2.23-2.21-5.22.07-10.45 0-15.68 0-4.21 0-3.74-.42-3.83 3.86 0 1.48.58 1.94 2 1.87 1.68-.08 3.36 0 5.34 0zm-79.13 29.94c0 4.88-.86 4.49 4.58 4.5 2.4 0 2.57-.17 2.57-2.57v-37.09c0-.35.13-.8 0-1-.41-.57-.9-1.34-1.48-1.46a26.63 26.63 0 00-3.47-.09c-1.68-.14-2.23.53-2.21 2.21.08 6.27 0 12.54 0 18.81-.05 5.55-.09 11.12-.04 16.69zm134.16-9c0 3.91-.05 7.56 0 11.22 0 1.63-.52 2.31-2.21 2.28-5.95-.09-4.94.52-5-4.83v-35c0-2.27.1-2.37 2.34-2.38 3.08 0 6.16.05 9.24 0 6.76-.11 12.76 4.57 12.41 12.41-.12 2.72.12 5.54-.57 8.11-.53 2-2.09 3.81-3.51 5.43a2.06 2.06 0 00-.54 2.39q1.94 5.76 3.77 11.57c.59 1.85.23 2.33-1.72 2.31-5.18-.05-4.1.69-5.65-4.08-.89-2.76-1.65-5.55-2.6-8.29a2 2 0 00-1.4-1.05c-1.43-.16-2.88-.07-4.61-.07zm.07-5.64h4.13a5.18 5.18 0 005.3-4.93 60.06 60.06 0 000-7.47 5 5 0 00-4.25-4.83 34.45 34.45 0 00-5.19-.05zm-258.5-2v-18.82c0-1.65.49-2.3 2.19-2.25 3.37.09 6.74 0 10.11 0 6.85 0 12.51 5 12.22 12.29-.22 5.8-.25 11.62 0 17.42.3 6.74-4.25 12.28-12 12.48-3.54.1-7.09 0-10.63 0-1.43 0-1.92-.61-1.91-2 .05-6.37-.03-12.76-.03-19.15zm7.2 15.25c2.05 0 3.92.11 5.76 0a4.45 4.45 0 004.24-4.29c0-.41.07-.82.07-1.22v-19.34c0-3.11-.93-4.77-3.3-5.23a54.3 54.3 0 00-6.76-.53zm30.24-31.52c0-5.47.74-4.73-4.84-4.77-2.17 0-2.24.08-2.24 2.27v35.22c0 5.25-1 4.65 4.88 4.74 1.65 0 2.24-.57 2.22-2.24-.07-6.28 0-12.56 0-18.83-.06-5.5-.04-10.96-.07-16.42zm20.52-63.89c2 .62 4.09 1 5.87 1.93a10.44 10.44 0 015.64 8.64c.12 1.24-.31 1.88-1.63 1.8h-1.74c-3.14 0-3.14 0-4-3.07a4.82 4.82 0 00-4.94-3.32 4.66 4.66 0 00-4.72 3.59 3 3 0 00-.07.51c0 7.7-.1 15.4.05 23.09 0 2.46 2.19 4.13 4.68 4.25a4.77 4.77 0 005-4.06c.26-2 1.11-2.73 3.05-2.44a14.43 14.43 0 002.08 0c2.1 0 2.4.37 2.13 2.48-.6 4.57-4.47 8.51-9.38 9.54-6.14 1.29-12.05-1.55-14.16-7a13.4 13.4 0 01-.78-4.58C74 98.34 74 92 74 85.71c0-7 3.7-11.23 10.67-12.21a4.87 4.87 0 00.83-.23zm133.58 0a3.07 3.07 0 01-.64.23c-7 1-10.61 5.19-10.62 12.25 0 6.25-.07 12.51.05 18.76a14.15 14.15 0 001 5.21c2.16 5 7.63 7.57 13.61 6.56a11.9 11.9 0 009.77-10c.16-1.46-.26-2.23-1.86-2.13a23.2 23.2 0 01-3.12 0c-1.45-.12-2.09.44-2.25 1.91a4.85 4.85 0 01-5 4.59 4.91 4.91 0 01-5.06-4.72q-.16-11 0-22.06a4.64 4.64 0 014.51-4.64 4.91 4.91 0 015.4 3.4c.78 3 .78 3 3.88 3h1.56c1.79 0 2.13-.4 1.86-2.21a10.6 10.6 0 00-5.6-8.26 35.93 35.93 0 00-5.7-1.89zm66.79 37.55a9.19 9.19 0 00-2.24-.6c-3.34-.07-6.69 0-10.22 0v-2.06-29.17c0-5.88.94-5-5.18-5.1-1.41 0-2 .51-2 1.93v38.38c0 1.43.6 1.92 2 1.91h15.81a5.61 5.61 0 001.81-.69zm-105.09-17.6v18.22c0 5.16-.57 4.61 4.66 4.62 2.42 0 2.53-.1 2.53-2.56V78.39c0-5.21.49-4.41-4.57-4.54a2.73 2.73 0 00-2.92 1.86c-1.81 4-3.71 8-5.59 12-.75 1.58-1.52 3.14-2.42 5-2.4-5.18-4.82-9.92-6.79-14.85-1.21-3-2.84-4.42-6.17-4-2.19.3-2.38.22-2.38 2.42v34.94c0 5.55-.67 4.85 4.92 4.88 2.06 0 2.25-.18 2.25-2.31V93.2a3.42 3.42 0 011.17 1.46c1.62 3.39 3.27 6.77 4.82 10.19a2.2 2.2 0 002.36 1.53 2 2 0 002.1-1.38c1.85-4 3.77-7.91 5.66-11.87zm-62.56 18c0 5.56-.64 4.85 4.92 4.88 2.09 0 2.28-.18 2.28-2.29V76.27c0-.29.12-.67 0-.85-.45-.54-.93-1.31-1.51-1.43a26.47 26.47 0 00-3.46-.09c-1.67-.12-2.26.57-2.24 2.23.07 5.15 0 10.31 0 15.46 0 .61 0 1.22-.08 1.9-2.77 0-5.33-.07-7.87 0-1.36 0-1.66-.46-1.64-1.71.06-4.4 0-8.81 0-13.21 0-5.35.62-4.64-4.75-4.68-2.28 0-2.38.09-2.38 2.32v34.93c0 5.67-.85 4.83 5 5 1.58 0 2.18-.54 2.16-2.12-.07-4.29 0-8.58 0-12.86 0-.61.07-1.22.11-1.89h9.46c0 4.04-.02 7.98 0 11.91zm141.13 4.88c2.57 0 2.76-.19 2.22-2.64q-2.49-11.36-5-22.69c-1.1-5-2.24-9.92-3.32-14.89-.3-1.37-.88-2.14-2.46-2s-3 0-4.52 0c-2.42 0-2.5.09-3 2.54q-1.78 8.13-3.61 16.24-2.4 10.66-4.79 21.32c-.34 1.53.05 2 1.6 2.09h3.48a1.63 1.63 0 001.94-1.5c.22-1.25.59-2.48.78-3.73.14-.93.57-1.23 1.5-1.21h6.6c3.38.07 2.77-.64 3.53 3 .72 3.42.69 3.42 4.07 3.42zm-15.21-12.32c1.33-6.18 2.64-12.25 3.94-18.32h.36l3.89 18.36zM149 79.55c4.3-.07 3.68.82 3.79-3.92 0-1.39-.49-1.79-1.82-1.78q-7.83.09-15.65 0c-1.52 0-2.05.59-2.05 2.05v38.05c0 1.54.53 2.16 2.14 2.14 5-.07 10.09-.1 15.12 0 1.75 0 2.34-.46 2.28-2.24-.15-4.09.46-3.65-3.79-3.67h-8.45V99.09h5.11c4.31 0 3.73.63 3.82-3.94 0-1.36-.45-1.87-1.81-1.82-2.36.07-4.72 0-7.15 0V79.55c2.96 0 5.73.04 8.46 0zm54.06-1c0-5.23.56-4.61-4.63-4.63-2.43 0-2.56.12-2.56 2.54v34.75c0 5.72-.49 4.83 4.91 4.89 2.09 0 2.28-.18 2.28-2.29V95.05c.05-5.54.06-11.05.04-16.54z" fill="#fff"/></svg>