<svg data-name="Слой 1" xmlns="http://www.w3.org/2000/svg" width="24" height="24"><path d="M23.94 7.06a8.77 8.77 0 00-.56-2.92A5.75 5.75 0 0022 2 5.88 5.88 0 0019.87.63 8.84 8.84 0 0017 .08C15.67 0 15.26 0 12 0S8.34 0 7.06.07a8.71 8.71 0 00-2.91.56A5.71 5.71 0 002 2 5.88 5.88 0 00.63 4.14a8.79 8.79 0 00-.55 2.91C0 8.34 0 8.74 0 12s0 3.67.07 5a8.76 8.76 0 00.56 2.91A5.83 5.83 0 002 22a5.85 5.85 0 002.12 1.38 8.82 8.82 0 002.91.56C8.33 24 8.74 24 12 24s3.67 0 4.95-.07a8.76 8.76 0 002.91-.56 6.13 6.13 0 003.51-3.51 8.76 8.76 0 00.56-2.86c.07-1.33.07-1.74.07-5s0-3.66-.06-4.94zm-2.16 9.79a6.31 6.31 0 01-.42 2.23 4 4 0 01-2.27 2.28 6.74 6.74 0 01-2.23.41c-1.27.06-1.65.07-4.85.07s-3.59 0-4.85-.07a6.74 6.74 0 01-2.23-.41 3.89 3.89 0 01-2.27-2.27 6.49 6.49 0 01-.41-2.23c-.06-1.27-.07-1.65-.07-4.85s0-3.59.07-4.85a6.36 6.36 0 01.41-2.22 3.63 3.63 0 01.9-1.38 3.84 3.84 0 011.38-.9 6.68 6.68 0 012.23-.41c1.26-.06 1.64-.07 4.84-.07s3.59 0 4.85.07a6.62 6.62 0 012.23.41 3.84 3.84 0 011.38.9 3.69 3.69 0 01.89 1.38 6.35 6.35 0 01.42 2.22c0 1.27.07 1.65.07 4.85s-.02 3.58-.07 4.84zM12 5.84A6.17 6.17 0 1018.17 12 6.16 6.16 0 0012 5.84zM12 16a4 4 0 114-4 4 4 0 01-4 4zm6.41-11.85a1.44 1.44 0 101.44 1.44 1.44 1.44 0 00-1.44-1.44z" fill="#666" fill-rule="evenodd"/></svg>