<svg data-name="Слой 1" xmlns="http://www.w3.org/2000/svg" width="254" height="64"><path d="M111.84 45.59h4v-17h7v17h4V24.86h-15zm26.38-20.73l-8 20.73h4.12l1.7-4.27h8.5l1.63 4.27h4.13l-8-20.73zm-.76 12.61l2.79-7.12 2.75 7.12zm24.53-12a14.19 14.19 0 00-4.93-.62h-4.2v20.74h4v-8.78a17.56 17.56 0 004.18-.33 5.86 5.86 0 003.1-2 5.62 5.62 0 001.14-3.6 6.28 6.28 0 00-.87-3.37 5.06 5.06 0 00-2.41-2.03zm-.92 6.57a1.9 1.9 0 01-.92.7 6.85 6.85 0 01-2.07.21h-1.26V28.7h1.12a5.37 5.37 0 012.52.41 1.89 1.89 0 01.94 1.76 2.07 2.07 0 01-.33 1.18zm5.75-3.3h3.7v16.85h4V28.75h3.79v-3.89h-11.49zm25 3.93h-7v-7.81h-4v20.73h4V36.5h7v9.09h4V24.86h-4zm9.06 12.91h11.38v-3.87h-7.44v-5.45h7.44v-3.79h-7.44v-3.75h7.44v-3.86h-11.35zM225 25.48a14.16 14.16 0 00-4.92-.62h-4.21v20.73h4v-8.78a17.62 17.62 0 004.18-.33 5.87 5.87 0 003.09-2 5.62 5.62 0 001.14-3.6 6.28 6.28 0 00-.87-3.37 5 5 0 00-2.41-2.03zm-.92 6.57a1.87 1.87 0 01-.91.7 6.94 6.94 0 01-2.07.21h-1.26V28.7H221a5.45 5.45 0 012.53.41 1.9 1.9 0 01.93 1.76 2.07 2.07 0 01-.36 1.18zm16.75 1.2a12.75 12.75 0 00-4.12-.57h-.87v-7.82h-4v20.73h5.83a9.49 9.49 0 003.74-.61 5.93 5.93 0 002.4-2.1 6.12 6.12 0 001-3.61 6.24 6.24 0 00-1.2-3.85 6 6 0 00-2.76-2.17zm-.71 8a6.11 6.11 0 01-3.29.61h-1V36.2h.82q4.31 0 4.3 2.95a2.37 2.37 0 01-.81 2.07zm7.65-16.36v20.7h3.94V24.86zM115.73 55.43a3.6 3.6 0 103.65 3.6 3.58 3.58 0 00-3.65-3.6zm0 6.07a2.39 2.39 0 01-2.38-2.5 2.36 2.36 0 012.36-2.48 2.39 2.39 0 012.38 2.48 2.36 2.36 0 01-2.36 2.5zm8.53 0a2.48 2.48 0 010-5 2.82 2.82 0 012 .86l.79-.9a3.64 3.64 0 00-2.74-1.08 3.6 3.6 0 000 7.2 3.61 3.61 0 002.84-1.24l-.79-.79a2.73 2.73 0 01-2.1.95zm8.89-3.06h-3.34v-2.9h-1.23v7h1.23v-2.97h3.34v2.94h1.23v-7h-1.23zm7.39-3a3.6 3.6 0 103.65 3.6 3.58 3.58 0 00-3.65-3.61zm0 6.07a2.39 2.39 0 01-2.38-2.51 2.36 2.36 0 012.36-2.48A2.39 2.39 0 01142.9 59a2.36 2.36 0 01-2.36 2.5zm9.69-2.61a1.66 1.66 0 001-1.55 1.58 1.58 0 00-.47-1.18 2.53 2.53 0 00-1.83-.62h-3.14v7H149c1.56 0 2.59-.67 2.59-1.91a1.71 1.71 0 00-1.36-1.75zM147 56.63h1.77c.79 0 1.23.34 1.23.88s-.53 1-1.32 1H147zm2 4.79h-2v-1.91h2c1 0 1.44.35 1.44.94s-.56.97-1.44.97zm6.83-5.92l-3.08 7h1.26l.72-1.68h3.31l.71 1.68h1.3l-3.08-7zm-.65 4.24l1.2-2.78 1.21 2.78zm11.35-1.3h-3.34v-2.9H162v7h1.23v-2.97h3.34v2.94h1.23v-7h-1.23zm10.32 4.07h1.22v-7h-1.22zm-3.46-4.46h-1.61v-2.51h-1.18v7h2.82c1.62 0 2.64-.88 2.64-2.28s-1.06-2.21-2.63-2.21zm0 3.36h-1.58v-2.29h1.56c.93 0 1.46.38 1.46 1.1s-.52 1.19-1.43 1.19zm14.85-2.52a1.66 1.66 0 001-1.55 1.58 1.58 0 00-.47-1.18 2.53 2.53 0 00-1.83-.62h-3.14v7h3.24c1.56 0 2.59-.67 2.59-1.91a1.71 1.71 0 00-1.38-1.74zM185 56.63h1.77c.79 0 1.23.34 1.23.88s-.53 1-1.32 1H185zm2 4.79h-2v-1.91h2c1 0 1.44.35 1.44.94s-.54.97-1.38.97zm10.71-1.18c1.23-1 1.82-1.6 1.82-2.7a2.09 2.09 0 00-2.31-2.09 2.86 2.86 0 00-2.58 1.46l.87.67c.54-.69 1-1 1.62-1a1 1 0 011.13 1.08c0 .63-.35 1.08-1.31 1.88l-2.41 2v1h5.06v-1.11h-3.33zm6.58-4.81c-1.84 0-3.06 1.61-3.06 3.6s1.2 3.6 3 3.6 3.06-1.61 3.06-3.6-1.11-3.6-2.94-3.6zm0 6.09c-1.09 0-1.79-1.12-1.79-2.49s.69-2.5 1.77-2.5 1.79 1.12 1.79 2.5-.62 2.49-1.71 2.49zm7.6-6.09c-1.84 0-3.06 1.61-3.06 3.6s1.2 3.6 3 3.6S215 61 215 59s-1.22-3.57-3-3.57zm0 6.09c-1.09 0-1.79-1.12-1.79-2.49s.69-2.5 1.77-2.5 1.79 1.12 1.79 2.5-.66 2.49-1.66 2.49zm4.23-5.43l.26 1 1.26-.35v5.77h1.22v-7H218zm8.88 6.42h1.22v-5.86h3.49v-1.11H225zm9-7.08a3.6 3.6 0 103.65 3.6 3.58 3.58 0 00-3.65-3.6zm0 6.07a2.39 2.39 0 01-2.39-2.5 2.36 2.36 0 012.39-2.45 2.39 2.39 0 012.35 2.45 2.36 2.36 0 01-2.35 2.5zm10.9-6H240v1a10.34 10.34 0 01-.89 4.88h-.68V64h1.08l.12-1.49h4.93V64h1l.17-2.59h-.87zm-1.23 5.87h-3.23a9.16 9.16 0 00.76-4v-.79h2.47zm9-5.87l-1.92 4.05-2.18-4.05h-1.38l2.92 5.28a1.38 1.38 0 01-1.1.75 1.65 1.65 0 01-.86-.22l-.47.92a2.76 2.76 0 001.37.35 2.4 2.4 0 002.22-1.58l2.73-5.46zM18.13 24.86h-4.46l-4.39 6.65-4.38-6.65H.44l6.61 10L0 45.59h4.49l4.8-7.29 4.79 7.29h4.47l-7-10.68zm7.63 13.4v-13.4h-4v20.73h3.45l7.77-13v13h4V24.86h-3.35zm35.51-13.4h-3.86l-4.88 14.46-4.83-14.46h-3.87l-3.6 20.73h3.86l2.29-13.09 4.39 13.09h3.5l4.42-13.09 2.24 13.09h3.83z" fill="#333" fill-rule="evenodd"/><path d="M88 18.71c-10.77 0-19.52 7.82-19.52 17.42S77.2 53.56 88 53.56s19.51-7.82 19.51-17.43S98.73 18.71 88 18.71zM88 51c-9.35 0-17-6.67-17-14.88s7.61-14.87 17-14.87 17 6.67 17 14.87S97.31 51 88 51zm0-26.43c-7 0-12.62 5.19-12.62 11.55S81 47.68 88 47.68a13.49 13.49 0 006.67-1.74l-1.28-2.21A10.86 10.86 0 0188 45.14a11.07 11.07 0 01-4-.72l1.46-3.94L96 36.31A4.76 4.76 0 0098.82 33a4.52 4.52 0 00-1-4.09A13 13 0 0088 24.58zM81.75 43.2a8.7 8.7 0 01-3.84-7.07c0-4.88 4.38-8.87 9.8-9zm14.58-10.77A2.19 2.19 0 0195 34l-8.33 3.31 3.67-9.87a10.11 10.11 0 015.55 3.22 2 2 0 01.44 1.77zM7.29 3.12l-3.11 3v.12l1.48 3 .88-.44-1.18-2.48L8 3.71zm-2.41.59l-.7-.59-3.11 3v.12l1.47 3 .89-.44-1.18-2.48zm10 1.62L12.79 0h-1L9.12 9.76h1.09l2.13-7.89 2.14 5.21h.06l5-5.23-2.15 7.91h1.12L21.14 0h-1.23zm13.5 1.24a4 4 0 00.27-1.41 2.63 2.63 0 00-2.78-2.76 4.45 4.45 0 00-4.21 4.46 3 3 0 003.21 3.07 4.17 4.17 0 002.84-1.08l-.56-.71a3.3 3.3 0 01-2.23.86 2 2 0 01-2.18-2.17 2 2 0 010-.25zM25.82 3.3a1.71 1.71 0 011.81 1.86 2.37 2.37 0 01-.06.54H22.9a3.17 3.17 0 012.92-2.4zm15.92-.75H40.4l-4.77 4.17 1.12-4.17h-1.08l-1.13 4.2L32 2.55h-1.2l1.89 3-4.15 4.21h1.37l3.31-3.37 1 1.57-.49 1.8h1.08l.46-1.7 2-1.66 1.53 3.36h1.16L38.1 5.69zm8.14 0h-5.19l-.35 1.28a12.43 12.43 0 01-2.34 5h-.82l-.75 2.83h.91l.66-1.9h6l-.52 1.91h.9l.92-2.83h-1.12zm-2.79 6.29h-3.92a12.14 12.14 0 002-4.27l.3-1.1h3.07zm7.1-.28l-1-6h-1.13l1.32 7.19c-.73 1-1.28 1.34-1.9 1.34a2 2 0 01-1.1-.36l-.59.81a2.66 2.66 0 001.58.5c1.08 0 2-.53 3-2l5-7.45h-1.29zM70 5.62h-4.17l.84-3.07h-1.09l-1.94 7.21h1.08l.87-3.22h4.15l-.87 3.22H70l2-7.21h-1.18zm7.1-3.18a6.47 6.47 0 00-2.41.45l.2.9a5.66 5.66 0 012-.37c1.3 0 1.94.53 1.94 1.45a3.61 3.61 0 01-.08.65l-.06.18a9.65 9.65 0 00-2.56-.39c-1.86 0-3.22 1-3.22 2.61a2.06 2.06 0 002.28 2A3.47 3.47 0 0078 8.63l-.3 1.13h1.07l1.09-4.09a4.45 4.45 0 00.14-1c0-1.38-1.07-2.23-2.9-2.23zm1.32 4.49a3 3 0 01-2.83 2.13c-.94 0-1.53-.5-1.53-1.27 0-1 .89-1.68 2.16-1.68a9.05 9.05 0 012.34.32zm7.33-.56l-1.66-3.82h-.94l-1.94 7.21h1.07l1.48-5.51 1.63 3.67 3.66-3.65-1.49 5.49h1.08l2-7.21h-1.16zM93 8.21l1.5-5.66h-1.07L91.5 9.76h1l5.84-5.69-1.52 5.69h1.07l2-7.21h-1zm18.77-5.66L109 5.3l-1.4-2.75h-1.19L108.23 6l-3.89 3.74h1.36l3-2.93 1.44 2.93h1.19l-1.89-3.64 3.69-3.57zm3.08 5.66l1.53-5.66h-1.07l-1.93 7.21h1l5.83-5.69-1.55 5.69h1.07l2-7.21h-1zm12.35-1.84l-1.66-3.82h-.94l-1.94 7.21h1.07l1.48-5.51 1.63 3.67 3.66-3.65-1.5 5.49h1.08L132 2.55h-1.1zm7.22 1.84l1.53-5.66h-1.07l-1.93 7.21h1l5.83-5.69-1.55 5.69h1.07l1.95-7.21h-1zm8.74-3.07A1.78 1.78 0 00144.57 7l-2.83 2.8h1.39l2.63-2.65h1.8l-.7 2.65h1.08l1.93-7.21h-3.24c-2.13-.04-3.5.94-3.5 2.55zm5.41-1.65l-.74 2.74h-2.08c-1 0-1.54-.36-1.54-1.1 0-1 .88-1.64 2.47-1.64zm7.29-.35l-.88.43L156.09 6l-2.62 2.6.69.59 3.11-3v-.11zm-1.64 3l-1.47-3-.89.43L153 6l-2.62 2.6.7.59 3.1-3z" fill="#1680db" fill-rule="evenodd"/></svg>