<svg data-name="Слой 1" xmlns="http://www.w3.org/2000/svg" width="192" height="104"><path d="M76.66 55.32a15.41 15.41 0 00-1.5 6.68 2.6 2.6 0 01-.77 2.09c.07-.65.13-1.1.17-1.56s0-.93-.71-.86c-.49 1.36-.79 2.83-2.14 3.67-.55-1.93-.55-1.93-1.12-2-.22 1.11-.45 2.23-.68 3.35-.28-.63-.35-1.22-.6-1.73s-.69-.61-1.13-.11-.79 1-1.26 1.64c0-1.23-.06-2.33-1.11-3-.09-.07-.11-.27-.12-.42-.06-.71-.09-1.43-.17-2.14a11.1 11.1 0 00-2.92-6.65.76.76 0 01-.18-.93c1-2.8 2-5.59 2.89-8.43a49.91 49.91 0 002.17-11.75 34.32 34.32 0 00-.4-8.34A20.06 20.06 0 0062.63 15a16.82 16.82 0 00-12.47-5.67 25 25 0 00-9 1.45C34.44 13 28.77 16.92 23.64 21.69a75.12 75.12 0 00-10.5 12.15 80.49 80.49 0 00-10 19.29 47.09 47.09 0 00-3 14.13c0 .42-.07.85-.11 1.27V69c.05.4.12.8.14 1.2a17.55 17.55 0 001.33 6.23 5.58 5.58 0 004.27 3.63 10.1 10.1 0 004.8-.52A49.6 49.6 0 0020 74.86l2.91-1.69a4.5 4.5 0 01-.48 1.49 25.81 25.81 0 00-2.87 10.81 14 14 0 00.79 5.64 6 6 0 005.67 4 13 13 0 006.33-1.85c1.9-1.09 3.72-2.34 5.61-3.55v12.86a5.5 5.5 0 00.45 1.45h.15c.6-.25.3-.76.31-1.17 0-4.34.08-8.67.18-13a3.36 3.36 0 01.61-1.9c1.93-2.32 4-4.49 5.93-6.83 2.26-2.78 4.51-5.59 6.55-8.55 3.11-4.51 5.46-9.48 7.94-14.35.62-1.21 1.23-2.42 1.87-3.68a11.06 11.06 0 01.78.86 12.05 12.05 0 012.16 7.6 1 1 0 01-.44.62 9.36 9.36 0 00-3.3 3.94 9.11 9.11 0 00-1 5.47c.11.6.16 1.33.87 1.46s1.21-.46 1.6-1a15.16 15.16 0 002.63-6.43c.12-.76.28-1.52.43-2.28a.66.66 0 01.11.54c-.31 1.52-.64 3-.91 4.55 0 .23.18.51.28.77.23-.13.56-.19.68-.39.65-1.07 1.23-2.17 1.86-3.25.26-.43.6-.81.9-1.21a.76.76 0 01.15.49c0 .63-.1 1.27-.07 1.91a.66.66 0 00.84.65 1.07 1.07 0 00.65-.55c.36-.8.65-1.63 1-2.5 1.47.82 1.74-.62 2.36-1.19a3.47 3.47 0 001 .48 7.09 7.09 0 001.32-.08 11.78 11.78 0 01.52-2.15 18.59 18.59 0 001.38-6.23c.05-.94-.14-1.17-1.09-1.3zM38.88 70.7l-.58 11.83c-.07 1.4-.14 2.81-.18 4.22A3 3 0 0137 89.36c-2.51 2-5.05 3.87-8.14 4.81-1.94.59-3.85.7-5.6-.55a6.43 6.43 0 01-2.42-4.27c-.79-3.95.16-7.71 1.44-11.35a35.8 35.8 0 012.36-5.11 8.56 8.56 0 011.89-1.79l-.53-.58a50.1 50.1 0 0113.57-14.07 2.58 2.58 0 01.07.51c-.13 2.27-.29 4.55-.41 6.82s-.23 4.62-.35 6.92zm21.67-15.54a123.32 123.32 0 01-10.63 19.06 94.86 94.86 0 01-10 12.2c-.16.17-.34.31-.51.46h-.19l.51-11.3c.11-2.23.21-4.46.35-6.69.17-2.78.39-5.57.59-8.35.1-1.51.2-3 .34-4.52a1 1 0 01.4-.7 29.5 29.5 0 0110.11-3.72 12.46 12.46 0 018.18 1.19c1.55.82 1.55.81.85 2.37zm1-2.2c-1.4-.61-2.7-1.29-4.08-1.74A15.48 15.48 0 0050 51a27.67 27.67 0 00-8.14 3l-.53.24v-4.48c0-1.25.19-2.5.26-3.76.17-3 .29-6 .48-9.05q.33-5.25.76-10.5c.26-3 .57-6 .91-8.92.22-2 .52-4 .79-6.07-.51 0-.68.44-.79.85-.34 1.35-.7 2.7-.91 4.07-.36 2.37-.65 4.75-.9 7.14-.21 2.06-.34 4.12-.5 6.19-.2 2.58-.4 5.15-.58 7.73-.13 1.84-.22 3.68-.34 5.52-.19 3-.39 5.93-.58 8.9-.06 1-.09 1.95-.2 2.91a1.09 1.09 0 01-.45.75 39.36 39.36 0 00-8.8 7.42 66.16 66.16 0 00-6.08 7.76 10.12 10.12 0 01-3 2.39 62.11 62.11 0 01-11 5.73 7.52 7.52 0 01-4.6.58 5.28 5.28 0 01-3.81-4 20.16 20.16 0 01-.81-4.49c-.38-7.65 1.58-14.82 4.5-21.79A74.55 74.55 0 0115.77 32a92.8 92.8 0 017.58-8.52 49.84 49.84 0 0117.21-11.6 23.71 23.71 0 0110.17-1.76c7 .51 11.94 4 14.47 10.68a26.1 26.1 0 011.57 9.06c.09 6.5-1.46 12.67-3.61 18.72-.54 1.5-1.16 2.98-1.66 4.42zM61 73.86c-.74-2.27 1-6.69 3.71-9.24.76 1.72-1.8 8.08-3.71 9.24zM174.77 22c-.49.19-1 .37-1.49.54a49.34 49.34 0 01-6.55 2.1 6.41 6.41 0 00-3.94 2.29 42.19 42.19 0 01-6.59 6.5 28 28 0 01-6.06 3.44c.13-.94.23-1.77.36-2.59a31.11 31.11 0 01.77-4.65c2.14-6.65 4.29-13.3 4.82-20.33a13.49 13.49 0 00-.57-5.75c-.18-.49-.42-1.16-1.07-1-.34.11-.52.69-.77 1.07a1 1 0 00-.12.36c-.72 4.85-1.47 9.71-2.14 14.57-.39 2.83-.62 5.68-.95 8.52a8 8 0 01-.48 2.3 36.94 36.94 0 01-2 3.86 7.39 7.39 0 01-3.49 3.38 3.25 3.25 0 000-1 1.16 1.16 0 00-.63-.62c-.11 0-.48.29-.55.5a2.42 2.42 0 000 1c.18 1.15-.17 2-1.33 2.15-.16-.82.95-1.85-.58-2.58a19.39 19.39 0 00-.44 2.08 2.88 2.88 0 01-1.38 2.34c-.38.22-1 .48-1.27.32s-.39-.81-.47-1.27c-.12-.63-.15-1.27-.22-1.91h-.29c-.77 1.28-.64 3-1.84 4.14-.39-1.1.69-2.49-.8-3.37-.41 1-.78 1.91-1.16 2.86-1.25-1.54-2-1.87-3.21-1.37a6.74 6.74 0 00-2.87 2.08c-1.26 1.6-2.54 3.17-3.9 4.86a9.66 9.66 0 00-3.79-4.61c-.19-.13-.22-.54-.25-.83s.08-.55.08-.83a88.07 88.07 0 00-.92-15.4 83.29 83.29 0 00-2-9.38c-1.39-4.8-3.55-9.23-7.39-12.62a11.76 11.76 0 00-6.44-3 12.92 12.92 0 00-10.58 3.6 36.63 36.63 0 00-7.7 10.4c-3.63 7-5.94 14.33-5.27 22.37A14.55 14.55 0 0081.87 44 21.6 21.6 0 0084 46.26l.16-.16c-.35-.39-.73-.77-1.06-1.18a15 15 0 01-3-8.42 31 31 0 01.63-9 47.54 47.54 0 017-16.53A26.69 26.69 0 0195.9 2.7c3.59-2.16 7.24-2.56 10.95-.31a16.53 16.53 0 015.83 6.55c3.33 6.17 4.58 12.93 5.33 19.81.24 2.18.33 4.39.4 6.59s0 4.3 0 6.38l-.31.12h-.61a11.84 11.84 0 00-6.38 1.67 37 37 0 00-11.67 10.63 87.74 87.74 0 00-6 9 58 58 0 00-7.74 21.7 24.08 24.08 0 00.49 9.49 8.15 8.15 0 002.68 4.54c2 1.56 4.16 1.38 6.3.31a19.51 19.51 0 007-6.5A87.47 87.47 0 00111 76.23a101.93 101.93 0 005.93-18.6c.76-3.42 1.27-6.89 1.88-10.35.24-1.41.43-2.83.64-4.26a4.8 4.8 0 012.55 6.72 14.4 14.4 0 00-2.11 7.17c0 .69 0 1.52.83 1.71s1.17-.58 1.46-1.19a17.72 17.72 0 001.71-8.36 2.46 2.46 0 01.38-1.35 52 52 0 013.07-4.28 8.58 8.58 0 014-2.83.86.86 0 011.16.54 2.9 2.9 0 01.25.87c.07.71.08 1.43.18 2.14a2.83 2.83 0 00.42.78c.16-.24.33-.48.48-.72v-.15l.6-3.17a10.57 10.57 0 01.37 1.13c.09.24.3.58.48.59a1 1 0 00.76-.35c.39-.5.71-1.05 1.16-1.75a3.73 3.73 0 00.46.65 1.49 1.49 0 002.23 0c.5-.43 1-.89 1.48-1.33.17-.14.39-.35.56-.32 1.17.18 1.67-.61 2.17-1.44a.85.85 0 01.45-.41 5.72 5.72 0 003.45-2.2c.51-.65 1-1.32 1.58-2.13-.25 1.36-.47 2.55-.69 3.76h-1.68a1.8 1.8 0 000 .28 19 19 0 01.34 6.63c-.13 1.48-.15 3-.17 4.45 0 .54.06 1.13.84 1.26.19-1.42.35-2.78.55-4.13.34-2.34.69-4.68 1.07-7a1 1 0 01.54-.57c1.14-.53 2.34-1 3.47-1.54 3.76-1.94 6.59-5 9.4-8.09a5.59 5.59 0 013.4-2.21 16.13 16.13 0 003.79-1.28c1.81-.74 3.6-1.56 5.39-2.34-.19-.72-.56-.79-1.06-.56zM154.46 4.22h.39a23.24 23.24 0 01.37 2.6 44.92 44.92 0 01-1.76 12.52c-.38 1.46-.85 2.91-1.27 4.36l-.27-.06q1.28-9.7 2.54-19.42zm-38.29 51.15a121.13 121.13 0 01-7.71 24.25 69.45 69.45 0 01-5.53 10.44c-2 3.06-4.19 6-7.39 8a9.62 9.62 0 01-3.2 1.27 3.71 3.71 0 01-3.68-1.72 11.46 11.46 0 01-2-5.83q-.12-1.23-.15-2.46a39.82 39.82 0 012.25-13.5A66.54 66.54 0 0199.35 56a58.39 58.39 0 017.3-8.24 20.44 20.44 0 018.34-5 6.6 6.6 0 013.46 0c-.77 4.24-1.45 8.43-2.28 12.61zm4.64 2c-.27-2.51.77-4.61 1.85-6.75.24 1.58-.76 5.66-1.85 6.78zm70.32-56.24c-.38.21-.78.37-1.16.58Q180.34 7 170.72 12.33c-1.07.6-2.09 1.31-3.13 2 .28.69.6.85 1.12.4a4 4 0 01.69-.46l18-10.12 4.6-2.59c-.16-.56-.42-.68-.87-.43z" fill="#333" fill-rule="evenodd"/></svg>